<?xml version="1.0" encoding="utf-8" standalone="no"?>
<!DOCTYPE svg PUBLIC "-//W3C//DTD SVG 1.1//EN"
  "http://www.w3.org/Graphics/SVG/1.1/DTD/svg11.dtd">
<svg xmlns:xlink="http://www.w3.org/1999/xlink" width="432pt" height="216pt" viewBox="0 0 432 216" xmlns="http://www.w3.org/2000/svg" version="1.1">
 <metadata>
  <rdf:RDF xmlns:dc="http://purl.org/dc/elements/1.1/" xmlns:cc="http://creativecommons.org/ns#" xmlns:rdf="http://www.w3.org/1999/02/22-rdf-syntax-ns#">
   <cc:Work>
    <dc:type rdf:resource="http://purl.org/dc/dcmitype/StillImage"/>
    <dc:date>2024-07-03T12:28:45.099988</dc:date>
    <dc:format>image/svg+xml</dc:format>
    <dc:creator>
     <cc:Agent>
      <dc:title>Matplotlib v3.9.0, https://matplotlib.org/</dc:title>
     </cc:Agent>
    </dc:creator>
   </cc:Work>
  </rdf:RDF>
 </metadata>
 <defs>
  <style type="text/css">*{stroke-linejoin: round; stroke-linecap: butt}</style>
 </defs>
 <g id="figure_1">
  <g id="patch_1">
   <path d="M 0 216 
L 432 216 
L 432 0 
L 0 0 
z
" style="fill: #ffffff"/>
  </g>
  <g id="axes_1">
   <g id="patch_2">
    <path d="M 43.02 172.98 
L 419.04 172.98 
L 419.04 12.96 
L 43.02 12.96 
z
" style="fill: #ffffff"/>
   </g>
   <g id="matplotlib.axis_1">
    <g id="xtick_1"/>
    <g id="xtick_2"/>
    <g id="xtick_3"/>
    <g id="xtick_4"/>
    <g id="xtick_5"/>
    <g id="xtick_6"/>
    <g id="text_1">
     <!-- $X$ -->
     <g style="fill: #262626" transform="translate(224.82 199.364062) scale(0.18 -0.18)">
      <defs>
       <path id="DejaVuSans-Oblique-58" d="M 878 4666 
L 1516 4666 
L 2316 2981 
L 3763 4666 
L 4500 4666 
L 2578 2438 
L 3738 0 
L 3103 0 
L 2163 1966 
L 459 0 
L -275 0 
L 1906 2509 
L 878 4666 
z
" transform="scale(0.015625)"/>
      </defs>
      <use xlink:href="#DejaVuSans-Oblique-58" transform="translate(0 0.09375)"/>
     </g>
    </g>
   </g>
   <g id="matplotlib.axis_2">
    <g id="ytick_1"/>
    <g id="ytick_2"/>
    <g id="ytick_3"/>
    <g id="ytick_4"/>
    <g id="ytick_5"/>
    <g id="ytick_6"/>
    <g id="ytick_7"/>
    <g id="ytick_8"/>
    <g id="text_2">
     <!-- $T$ -->
     <g style="fill: #262626" transform="translate(25.9425 98.55) rotate(-90) scale(0.18 -0.18)">
      <defs>
       <path id="DejaVuSans-Oblique-54" d="M 378 4666 
L 4325 4666 
L 4225 4134 
L 2559 4134 
L 1759 0 
L 1125 0 
L 1925 4134 
L 275 4134 
L 378 4666 
z
" transform="scale(0.015625)"/>
      </defs>
      <use xlink:href="#DejaVuSans-Oblique-54" transform="translate(0 0.09375)"/>
     </g>
    </g>
   </g>
   <g id="PathCollection_1">
    <defs>
     <path id="m34997042b8" d="M 0 3 
C 0.795609 3 1.55874 2.683901 2.12132 2.12132 
C 2.683901 1.55874 3 0.795609 3 0 
C 3 -0.795609 2.683901 -1.55874 2.12132 -2.12132 
C 1.55874 -2.683901 0.795609 -3 0 -3 
C -0.795609 -3 -1.55874 -2.683901 -2.12132 -2.12132 
C -2.683901 -1.55874 -3 -0.795609 -3 0 
C -3 0.795609 -2.683901 1.55874 -2.12132 2.12132 
C -1.55874 2.683901 -0.795609 3 0 3 
z
" style="stroke: #c44e52"/>
    </defs>
    <g clip-path="url(#p5d6f8636e4)">
     <use xlink:href="#m34997042b8" x="282.765922" y="-1" style="fill: #c44e52; stroke: #c44e52"/>
     <use xlink:href="#m34997042b8" x="286.403171" y="72.482428" style="fill: #c44e52; stroke: #c44e52"/>
     <use xlink:href="#m34997042b8" x="282.636765" y="-1" style="fill: #c44e52; stroke: #c44e52"/>
     <use xlink:href="#m34997042b8" x="282.467999" y="-1" style="fill: #c44e52; stroke: #c44e52"/>
     <use xlink:href="#m34997042b8" x="285.212724" y="52.633093" style="fill: #c44e52; stroke: #c44e52"/>
     <use xlink:href="#m34997042b8" x="283.872438" y="-1" style="fill: #c44e52; stroke: #c44e52"/>
     <use xlink:href="#m34997042b8" x="313.846167" y="-1" style="fill: #c44e52; stroke: #c44e52"/>
     <use xlink:href="#m34997042b8" x="326.428154" y="167.040151" style="fill: #c44e52; stroke: #c44e52"/>
     <use xlink:href="#m34997042b8" x="320.740329" y="-1" style="fill: #c44e52; stroke: #c44e52"/>
     <use xlink:href="#m34997042b8" x="295.305745" y="-1" style="fill: #c44e52; stroke: #c44e52"/>
     <use xlink:href="#m34997042b8" x="310.97427" y="145.137149" style="fill: #c44e52; stroke: #c44e52"/>
     <use xlink:href="#m34997042b8" x="306.254579" y="-1" style="fill: #c44e52; stroke: #c44e52"/>
     <use xlink:href="#m34997042b8" x="328.429085" y="-1" style="fill: #c44e52; stroke: #c44e52"/>
     <use xlink:href="#m34997042b8" x="340.182514" y="167.579017" style="fill: #c44e52; stroke: #c44e52"/>
     <use xlink:href="#m34997042b8" x="309.189017" y="-1" style="fill: #c44e52; stroke: #c44e52"/>
     <use xlink:href="#m34997042b8" x="323.319525" y="-1" style="fill: #c44e52; stroke: #c44e52"/>
     <use xlink:href="#m34997042b8" x="332.307447" y="164.233839" style="fill: #c44e52; stroke: #c44e52"/>
     <use xlink:href="#m34997042b8" x="322.3983" y="-1" style="fill: #c44e52; stroke: #c44e52"/>
     <use xlink:href="#m34997042b8" x="381.333418" y="-1" style="fill: #c44e52; stroke: #c44e52"/>
     <use xlink:href="#m34997042b8" x="391.11066" y="159.4674" style="fill: #c44e52; stroke: #c44e52"/>
     <use xlink:href="#m34997042b8" x="366.392131" y="-1" style="fill: #c44e52; stroke: #c44e52"/>
    </g>
   </g>
   <g id="PathCollection_2">
    <defs>
     <path id="m29e0ec92ac" d="M 0 3 
C 0.795609 3 1.55874 2.683901 2.12132 2.12132 
C 2.683901 1.55874 3 0.795609 3 0 
C 3 -0.795609 2.683901 -1.55874 2.12132 -2.12132 
C 1.55874 -2.683901 0.795609 -3 0 -3 
C -0.795609 -3 -1.55874 -2.683901 -2.12132 -2.12132 
C -2.683901 -1.55874 -3 -0.795609 -3 0 
C -3 0.795609 -2.683901 1.55874 -2.12132 2.12132 
C -1.55874 2.683901 -0.795609 3 0 3 
z
" style="stroke: #55a868"/>
    </defs>
    <g clip-path="url(#p5d6f8636e4)">
     <use xlink:href="#m29e0ec92ac" x="340.182514" y="167.579017" style="fill: #55a868; stroke: #55a868"/>
    </g>
   </g>
   <g id="line2d_1">
    <path d="M 43.02 167.579017 
L 419.04 167.579017 
" clip-path="url(#p5d6f8636e4)" style="fill: none; stroke-dasharray: 5.55,2.4; stroke-dashoffset: 0; stroke: #55a868; stroke-opacity: 0.5; stroke-width: 1.5"/>
   </g>
   <g id="patch_3">
    <path d="M 43.02 172.98 
L 43.02 12.96 
" style="fill: none; stroke: #cccccc; stroke-width: 1.25; stroke-linejoin: miter; stroke-linecap: square"/>
   </g>
   <g id="patch_4">
    <path d="M 43.02 172.98 
L 419.04 172.98 
" style="fill: none; stroke: #cccccc; stroke-width: 1.25; stroke-linejoin: miter; stroke-linecap: square"/>
   </g>
  </g>
 </g>
 <defs>
  <clipPath id="p5d6f8636e4">
   <rect x="43.02" y="12.96" width="376.02" height="160.02"/>
  </clipPath>
 </defs>
</svg>
