<?xml version="1.0" encoding="utf-8" standalone="no"?>
<!DOCTYPE svg PUBLIC "-//W3C//DTD SVG 1.1//EN"
  "http://www.w3.org/Graphics/SVG/1.1/DTD/svg11.dtd">
<svg xmlns:xlink="http://www.w3.org/1999/xlink" width="432pt" height="216pt" viewBox="0 0 432 216" xmlns="http://www.w3.org/2000/svg" version="1.1">
 <metadata>
  <rdf:RDF xmlns:dc="http://purl.org/dc/elements/1.1/" xmlns:cc="http://creativecommons.org/ns#" xmlns:rdf="http://www.w3.org/1999/02/22-rdf-syntax-ns#">
   <cc:Work>
    <dc:type rdf:resource="http://purl.org/dc/dcmitype/StillImage"/>
    <dc:date>2024-07-03T12:28:44.944792</dc:date>
    <dc:format>image/svg+xml</dc:format>
    <dc:creator>
     <cc:Agent>
      <dc:title>Matplotlib v3.9.0, https://matplotlib.org/</dc:title>
     </cc:Agent>
    </dc:creator>
   </cc:Work>
  </rdf:RDF>
 </metadata>
 <defs>
  <style type="text/css">*{stroke-linejoin: round; stroke-linecap: butt}</style>
 </defs>
 <g id="figure_1">
  <g id="patch_1">
   <path d="M 0 216 
L 432 216 
L 432 0 
L 0 0 
z
" style="fill: #ffffff"/>
  </g>
  <g id="axes_1">
   <g id="patch_2">
    <path d="M 43.02 172.98 
L 419.04 172.98 
L 419.04 12.96 
L 43.02 12.96 
z
" style="fill: #ffffff"/>
   </g>
   <g id="matplotlib.axis_1">
    <g id="xtick_1"/>
    <g id="xtick_2"/>
    <g id="xtick_3"/>
    <g id="xtick_4"/>
    <g id="xtick_5"/>
    <g id="xtick_6"/>
    <g id="text_1">
     <!-- $X$ -->
     <g style="fill: #262626" transform="translate(224.82 199.364062) scale(0.18 -0.18)">
      <defs>
       <path id="DejaVuSans-Oblique-58" d="M 878 4666 
L 1516 4666 
L 2316 2981 
L 3763 4666 
L 4500 4666 
L 2578 2438 
L 3738 0 
L 3103 0 
L 2163 1966 
L 459 0 
L -275 0 
L 1906 2509 
L 878 4666 
z
" transform="scale(0.015625)"/>
      </defs>
      <use xlink:href="#DejaVuSans-Oblique-58" transform="translate(0 0.09375)"/>
     </g>
    </g>
   </g>
   <g id="matplotlib.axis_2">
    <g id="ytick_1"/>
    <g id="ytick_2"/>
    <g id="ytick_3"/>
    <g id="ytick_4"/>
    <g id="ytick_5"/>
    <g id="ytick_6"/>
    <g id="ytick_7"/>
    <g id="ytick_8"/>
    <g id="text_2">
     <!-- $T$ -->
     <g style="fill: #262626" transform="translate(25.9425 98.55) rotate(-90) scale(0.18 -0.18)">
      <defs>
       <path id="DejaVuSans-Oblique-54" d="M 378 4666 
L 4325 4666 
L 4225 4134 
L 2559 4134 
L 1759 0 
L 1125 0 
L 1925 4134 
L 275 4134 
L 378 4666 
z
" transform="scale(0.015625)"/>
      </defs>
      <use xlink:href="#DejaVuSans-Oblique-54" transform="translate(0 0.09375)"/>
     </g>
    </g>
   </g>
   <g id="PathCollection_1">
    <defs>
     <path id="m4034398400" d="M 0 3 
C 0.795609 3 1.55874 2.683901 2.12132 2.12132 
C 2.683901 1.55874 3 0.795609 3 0 
C 3 -0.795609 2.683901 -1.55874 2.12132 -2.12132 
C 1.55874 -2.683901 0.795609 -3 0 -3 
C -0.795609 -3 -1.55874 -2.683901 -2.12132 -2.12132 
C -2.683901 -1.55874 -3 -0.795609 -3 0 
C -3 0.795609 -2.683901 1.55874 -2.12132 2.12132 
C -1.55874 2.683901 -0.795609 3 0 3 
z
" style="stroke: #4c72b0"/>
    </defs>
    <g clip-path="url(#p8abbdecf2a)">
     <use xlink:href="#m4034398400" x="147.88868" y="171.678253" style="fill: #4c72b0; stroke: #4c72b0"/>
     <use xlink:href="#m4034398400" x="210.473595" y="167.942953" style="fill: #4c72b0; stroke: #4c72b0"/>
     <use xlink:href="#m4034398400" x="265.901866" y="156.120033" style="fill: #4c72b0; stroke: #4c72b0"/>
     <use xlink:href="#m4034398400" x="195.768546" y="150.123231" style="fill: #4c72b0; stroke: #4c72b0"/>
     <use xlink:href="#m4034398400" x="236.319807" y="149.53364" style="fill: #4c72b0; stroke: #4c72b0"/>
     <use xlink:href="#m4034398400" x="261.519228" y="148.840471" style="fill: #4c72b0; stroke: #4c72b0"/>
     <use xlink:href="#m4034398400" x="230.698079" y="148.525918" style="fill: #4c72b0; stroke: #4c72b0"/>
     <use xlink:href="#m4034398400" x="102.080688" y="148.495176" style="fill: #4c72b0; stroke: #4c72b0"/>
     <use xlink:href="#m4034398400" x="178.224709" y="146.391518" style="fill: #4c72b0; stroke: #4c72b0"/>
     <use xlink:href="#m4034398400" x="286.403171" y="144.812295" style="fill: #4c72b0; stroke: #4c72b0"/>
     <use xlink:href="#m4034398400" x="174.383338" y="144.432491" style="fill: #4c72b0; stroke: #4c72b0"/>
     <use xlink:href="#m4034398400" x="285.212724" y="144.096736" style="fill: #4c72b0; stroke: #4c72b0"/>
     <use xlink:href="#m4034398400" x="231.093262" y="143.929751" style="fill: #4c72b0; stroke: #4c72b0"/>
     <use xlink:href="#m4034398400" x="201.725932" y="143.093753" style="fill: #4c72b0; stroke: #4c72b0"/>
     <use xlink:href="#m4034398400" x="281.668773" y="141.23088" style="fill: #4c72b0; stroke: #4c72b0"/>
     <use xlink:href="#m4034398400" x="255.34361" y="137.956891" style="fill: #4c72b0; stroke: #4c72b0"/>
     <use xlink:href="#m4034398400" x="219.383089" y="135.182464" style="fill: #4c72b0; stroke: #4c72b0"/>
     <use xlink:href="#m4034398400" x="171.997994" y="134.444444" style="fill: #4c72b0; stroke: #4c72b0"/>
     <use xlink:href="#m4034398400" x="160.703972" y="132.01379" style="fill: #4c72b0; stroke: #4c72b0"/>
     <use xlink:href="#m4034398400" x="189.807791" y="131.499522" style="fill: #4c72b0; stroke: #4c72b0"/>
     <use xlink:href="#m4034398400" x="154.855331" y="128.465953" style="fill: #4c72b0; stroke: #4c72b0"/>
     <use xlink:href="#m4034398400" x="257.113443" y="127.263907" style="fill: #4c72b0; stroke: #4c72b0"/>
     <use xlink:href="#m4034398400" x="103.804517" y="121.736522" style="fill: #4c72b0; stroke: #4c72b0"/>
     <use xlink:href="#m4034398400" x="179.377537" y="120.702828" style="fill: #4c72b0; stroke: #4c72b0"/>
     <use xlink:href="#m4034398400" x="145.846248" y="115.188593" style="fill: #4c72b0; stroke: #4c72b0"/>
     <use xlink:href="#m4034398400" x="56.122836" y="113.043423" style="fill: #4c72b0; stroke: #4c72b0"/>
     <use xlink:href="#m4034398400" x="250.956204" y="111.127329" style="fill: #4c72b0; stroke: #4c72b0"/>
     <use xlink:href="#m4034398400" x="151.805173" y="109.914008" style="fill: #4c72b0; stroke: #4c72b0"/>
     <use xlink:href="#m4034398400" x="161.33383" y="107.403388" style="fill: #4c72b0; stroke: #4c72b0"/>
     <use xlink:href="#m4034398400" x="155.708908" y="104.253205" style="fill: #4c72b0; stroke: #4c72b0"/>
     <use xlink:href="#m4034398400" x="326.428154" y="102.746408" style="fill: #4c72b0; stroke: #4c72b0"/>
     <use xlink:href="#m4034398400" x="249.252649" y="101.555851" style="fill: #4c72b0; stroke: #4c72b0"/>
     <use xlink:href="#m4034398400" x="199.727942" y="99.917859" style="fill: #4c72b0; stroke: #4c72b0"/>
     <use xlink:href="#m4034398400" x="203.849013" y="99.007786" style="fill: #4c72b0; stroke: #4c72b0"/>
     <use xlink:href="#m4034398400" x="184.141449" y="97.925436" style="fill: #4c72b0; stroke: #4c72b0"/>
     <use xlink:href="#m4034398400" x="104.971063" y="96.484957" style="fill: #4c72b0; stroke: #4c72b0"/>
     <use xlink:href="#m4034398400" x="136.507965" y="95.976532" style="fill: #4c72b0; stroke: #4c72b0"/>
     <use xlink:href="#m4034398400" x="170.718876" y="95.264651" style="fill: #4c72b0; stroke: #4c72b0"/>
     <use xlink:href="#m4034398400" x="173.62988" y="90.810062" style="fill: #4c72b0; stroke: #4c72b0"/>
     <use xlink:href="#m4034398400" x="237.231029" y="79.736142" style="fill: #4c72b0; stroke: #4c72b0"/>
     <use xlink:href="#m4034398400" x="246.78588" y="74.205116" style="fill: #4c72b0; stroke: #4c72b0"/>
     <use xlink:href="#m4034398400" x="82.357708" y="71.270955" style="fill: #4c72b0; stroke: #4c72b0"/>
     <use xlink:href="#m4034398400" x="186.561315" y="66.988237" style="fill: #4c72b0; stroke: #4c72b0"/>
     <use xlink:href="#m4034398400" x="68.859299" y="64.640078" style="fill: #4c72b0; stroke: #4c72b0"/>
     <use xlink:href="#m4034398400" x="310.97427" y="63.985106" style="fill: #4c72b0; stroke: #4c72b0"/>
     <use xlink:href="#m4034398400" x="238.044125" y="60.47158" style="fill: #4c72b0; stroke: #4c72b0"/>
     <use xlink:href="#m4034398400" x="239.038157" y="55.41088" style="fill: #4c72b0; stroke: #4c72b0"/>
     <use xlink:href="#m4034398400" x="181.177794" y="54.800016" style="fill: #4c72b0; stroke: #4c72b0"/>
     <use xlink:href="#m4034398400" x="340.182514" y="53.701621" style="fill: #4c72b0; stroke: #4c72b0"/>
     <use xlink:href="#m4034398400" x="289.765168" y="53.156718" style="fill: #4c72b0; stroke: #4c72b0"/>
     <use xlink:href="#m4034398400" x="184.825216" y="51.391029" style="fill: #4c72b0; stroke: #4c72b0"/>
     <use xlink:href="#m4034398400" x="279.400597" y="50.043579" style="fill: #4c72b0; stroke: #4c72b0"/>
     <use xlink:href="#m4034398400" x="186.797298" y="47.196614" style="fill: #4c72b0; stroke: #4c72b0"/>
     <use xlink:href="#m4034398400" x="262.008535" y="45.68618" style="fill: #4c72b0; stroke: #4c72b0"/>
     <use xlink:href="#m4034398400" x="266.834214" y="36.470699" style="fill: #4c72b0; stroke: #4c72b0"/>
     <use xlink:href="#m4034398400" x="134.093144" y="35.987214" style="fill: #4c72b0; stroke: #4c72b0"/>
     <use xlink:href="#m4034398400" x="208.435849" y="35.21436" style="fill: #4c72b0; stroke: #4c72b0"/>
     <use xlink:href="#m4034398400" x="332.307447" y="32.201471" style="fill: #4c72b0; stroke: #4c72b0"/>
     <use xlink:href="#m4034398400" x="195.739521" y="30.66764" style="fill: #4c72b0; stroke: #4c72b0"/>
     <use xlink:href="#m4034398400" x="178.798701" y="30.60365" style="fill: #4c72b0; stroke: #4c72b0"/>
     <use xlink:href="#m4034398400" x="184.080058" y="29.020156" style="fill: #4c72b0; stroke: #4c72b0"/>
     <use xlink:href="#m4034398400" x="289.440948" y="28.48196" style="fill: #4c72b0; stroke: #4c72b0"/>
     <use xlink:href="#m4034398400" x="150.934836" y="24.310348" style="fill: #4c72b0; stroke: #4c72b0"/>
     <use xlink:href="#m4034398400" x="124.61823" y="18.586523" style="fill: #4c72b0; stroke: #4c72b0"/>
     <use xlink:href="#m4034398400" x="252.648516" y="17.783374" style="fill: #4c72b0; stroke: #4c72b0"/>
     <use xlink:href="#m4034398400" x="391.11066" y="14.271182" style="fill: #4c72b0; stroke: #4c72b0"/>
     <use xlink:href="#m4034398400" x="41.054851" y="14.126161" style="fill: #4c72b0; stroke: #4c72b0"/>
     <use xlink:href="#m4034398400" x="218.970284" y="9.350383" style="fill: #4c72b0; stroke: #4c72b0"/>
    </g>
   </g>
   <g id="patch_3">
    <path d="M 43.02 172.98 
L 43.02 12.96 
" style="fill: none; stroke: #cccccc; stroke-width: 1.25; stroke-linejoin: miter; stroke-linecap: square"/>
   </g>
   <g id="patch_4">
    <path d="M 43.02 172.98 
L 419.04 172.98 
" style="fill: none; stroke: #cccccc; stroke-width: 1.25; stroke-linejoin: miter; stroke-linecap: square"/>
   </g>
  </g>
 </g>
 <defs>
  <clipPath id="p8abbdecf2a">
   <rect x="43.02" y="12.96" width="376.02" height="160.02"/>
  </clipPath>
 </defs>
</svg>
