<?xml version="1.0" encoding="utf-8" standalone="no"?>
<!DOCTYPE svg PUBLIC "-//W3C//DTD SVG 1.1//EN"
  "http://www.w3.org/Graphics/SVG/1.1/DTD/svg11.dtd">
<svg xmlns:xlink="http://www.w3.org/1999/xlink" width="432pt" height="216pt" viewBox="0 0 432 216" xmlns="http://www.w3.org/2000/svg" version="1.1">
 <metadata>
  <rdf:RDF xmlns:dc="http://purl.org/dc/elements/1.1/" xmlns:cc="http://creativecommons.org/ns#" xmlns:rdf="http://www.w3.org/1999/02/22-rdf-syntax-ns#">
   <cc:Work>
    <dc:type rdf:resource="http://purl.org/dc/dcmitype/StillImage"/>
    <dc:date>2024-07-03T12:28:44.980911</dc:date>
    <dc:format>image/svg+xml</dc:format>
    <dc:creator>
     <cc:Agent>
      <dc:title>Matplotlib v3.9.0, https://matplotlib.org/</dc:title>
     </cc:Agent>
    </dc:creator>
   </cc:Work>
  </rdf:RDF>
 </metadata>
 <defs>
  <style type="text/css">*{stroke-linejoin: round; stroke-linecap: butt}</style>
 </defs>
 <g id="figure_1">
  <g id="patch_1">
   <path d="M 0 216 
L 432 216 
L 432 0 
L 0 0 
z
" style="fill: #ffffff"/>
  </g>
  <g id="axes_1">
   <g id="patch_2">
    <path d="M 43.02 172.98 
L 419.04 172.98 
L 419.04 12.96 
L 43.02 12.96 
z
" style="fill: #ffffff"/>
   </g>
   <g id="matplotlib.axis_1">
    <g id="xtick_1"/>
    <g id="xtick_2"/>
    <g id="xtick_3"/>
    <g id="xtick_4"/>
    <g id="xtick_5"/>
    <g id="xtick_6"/>
    <g id="text_1">
     <!-- $X$ -->
     <g style="fill: #262626" transform="translate(224.82 199.364062) scale(0.18 -0.18)">
      <defs>
       <path id="DejaVuSans-Oblique-58" d="M 878 4666 
L 1516 4666 
L 2316 2981 
L 3763 4666 
L 4500 4666 
L 2578 2438 
L 3738 0 
L 3103 0 
L 2163 1966 
L 459 0 
L -275 0 
L 1906 2509 
L 878 4666 
z
" transform="scale(0.015625)"/>
      </defs>
      <use xlink:href="#DejaVuSans-Oblique-58" transform="translate(0 0.09375)"/>
     </g>
    </g>
   </g>
   <g id="matplotlib.axis_2">
    <g id="ytick_1"/>
    <g id="ytick_2"/>
    <g id="ytick_3"/>
    <g id="ytick_4"/>
    <g id="ytick_5"/>
    <g id="ytick_6"/>
    <g id="ytick_7"/>
    <g id="ytick_8"/>
    <g id="text_2">
     <!-- $T$ -->
     <g style="fill: #262626" transform="translate(25.9425 98.55) rotate(-90) scale(0.18 -0.18)">
      <defs>
       <path id="DejaVuSans-Oblique-54" d="M 378 4666 
L 4325 4666 
L 4225 4134 
L 2559 4134 
L 1759 0 
L 1125 0 
L 1925 4134 
L 275 4134 
L 378 4666 
z
" transform="scale(0.015625)"/>
      </defs>
      <use xlink:href="#DejaVuSans-Oblique-54" transform="translate(0 0.09375)"/>
     </g>
    </g>
   </g>
   <g id="PathCollection_1">
    <defs>
     <path id="m6fd8f728ec" d="M 0 3 
C 0.795609 3 1.55874 2.683901 2.12132 2.12132 
C 2.683901 1.55874 3 0.795609 3 0 
C 3 -0.795609 2.683901 -1.55874 2.12132 -2.12132 
C 1.55874 -2.683901 0.795609 -3 0 -3 
C -0.795609 -3 -1.55874 -2.683901 -2.12132 -2.12132 
C -2.683901 -1.55874 -3 -0.795609 -3 0 
C -3 0.795609 -2.683901 1.55874 -2.12132 2.12132 
C -1.55874 2.683901 -0.795609 3 0 3 
z
" style="stroke: #4c72b0"/>
    </defs>
    <g clip-path="url(#p84290b1e84)">
     <use xlink:href="#m6fd8f728ec" x="147.88868" y="171.678253" style="fill: #4c72b0; stroke: #4c72b0"/>
     <use xlink:href="#m6fd8f728ec" x="210.473595" y="167.942953" style="fill: #4c72b0; stroke: #4c72b0"/>
     <use xlink:href="#m6fd8f728ec" x="265.901866" y="156.120033" style="fill: #4c72b0; stroke: #4c72b0"/>
     <use xlink:href="#m6fd8f728ec" x="195.768546" y="150.123231" style="fill: #4c72b0; stroke: #4c72b0"/>
     <use xlink:href="#m6fd8f728ec" x="236.319807" y="149.53364" style="fill: #4c72b0; stroke: #4c72b0"/>
     <use xlink:href="#m6fd8f728ec" x="261.519228" y="148.840471" style="fill: #4c72b0; stroke: #4c72b0"/>
     <use xlink:href="#m6fd8f728ec" x="230.698079" y="148.525918" style="fill: #4c72b0; stroke: #4c72b0"/>
     <use xlink:href="#m6fd8f728ec" x="102.080688" y="148.495176" style="fill: #4c72b0; stroke: #4c72b0"/>
     <use xlink:href="#m6fd8f728ec" x="178.224709" y="146.391518" style="fill: #4c72b0; stroke: #4c72b0"/>
     <use xlink:href="#m6fd8f728ec" x="286.403171" y="144.812295" style="fill: #4c72b0; stroke: #4c72b0"/>
     <use xlink:href="#m6fd8f728ec" x="174.383338" y="144.432491" style="fill: #4c72b0; stroke: #4c72b0"/>
     <use xlink:href="#m6fd8f728ec" x="285.212724" y="144.096736" style="fill: #4c72b0; stroke: #4c72b0"/>
     <use xlink:href="#m6fd8f728ec" x="231.093262" y="143.929751" style="fill: #4c72b0; stroke: #4c72b0"/>
     <use xlink:href="#m6fd8f728ec" x="201.725932" y="143.093753" style="fill: #4c72b0; stroke: #4c72b0"/>
     <use xlink:href="#m6fd8f728ec" x="281.668773" y="141.23088" style="fill: #4c72b0; stroke: #4c72b0"/>
     <use xlink:href="#m6fd8f728ec" x="255.34361" y="137.956891" style="fill: #4c72b0; stroke: #4c72b0"/>
     <use xlink:href="#m6fd8f728ec" x="219.383089" y="135.182464" style="fill: #4c72b0; stroke: #4c72b0"/>
     <use xlink:href="#m6fd8f728ec" x="171.997994" y="134.444444" style="fill: #4c72b0; stroke: #4c72b0"/>
     <use xlink:href="#m6fd8f728ec" x="160.703972" y="132.01379" style="fill: #4c72b0; stroke: #4c72b0"/>
     <use xlink:href="#m6fd8f728ec" x="189.807791" y="131.499522" style="fill: #4c72b0; stroke: #4c72b0"/>
     <use xlink:href="#m6fd8f728ec" x="154.855331" y="128.465953" style="fill: #4c72b0; stroke: #4c72b0"/>
     <use xlink:href="#m6fd8f728ec" x="257.113443" y="127.263907" style="fill: #4c72b0; stroke: #4c72b0"/>
     <use xlink:href="#m6fd8f728ec" x="103.804517" y="121.736522" style="fill: #4c72b0; stroke: #4c72b0"/>
     <use xlink:href="#m6fd8f728ec" x="179.377537" y="120.702828" style="fill: #4c72b0; stroke: #4c72b0"/>
     <use xlink:href="#m6fd8f728ec" x="145.846248" y="115.188593" style="fill: #4c72b0; stroke: #4c72b0"/>
     <use xlink:href="#m6fd8f728ec" x="56.122836" y="113.043423" style="fill: #4c72b0; stroke: #4c72b0"/>
     <use xlink:href="#m6fd8f728ec" x="250.956204" y="111.127329" style="fill: #4c72b0; stroke: #4c72b0"/>
     <use xlink:href="#m6fd8f728ec" x="151.805173" y="109.914008" style="fill: #4c72b0; stroke: #4c72b0"/>
     <use xlink:href="#m6fd8f728ec" x="161.33383" y="107.403388" style="fill: #4c72b0; stroke: #4c72b0"/>
     <use xlink:href="#m6fd8f728ec" x="155.708908" y="104.253205" style="fill: #4c72b0; stroke: #4c72b0"/>
     <use xlink:href="#m6fd8f728ec" x="326.428154" y="102.746408" style="fill: #4c72b0; stroke: #4c72b0"/>
     <use xlink:href="#m6fd8f728ec" x="249.252649" y="101.555851" style="fill: #4c72b0; stroke: #4c72b0"/>
     <use xlink:href="#m6fd8f728ec" x="199.727942" y="99.917859" style="fill: #4c72b0; stroke: #4c72b0"/>
     <use xlink:href="#m6fd8f728ec" x="203.849013" y="99.007786" style="fill: #4c72b0; stroke: #4c72b0"/>
     <use xlink:href="#m6fd8f728ec" x="184.141449" y="97.925436" style="fill: #4c72b0; stroke: #4c72b0"/>
     <use xlink:href="#m6fd8f728ec" x="104.971063" y="96.484957" style="fill: #4c72b0; stroke: #4c72b0"/>
     <use xlink:href="#m6fd8f728ec" x="136.507965" y="95.976532" style="fill: #4c72b0; stroke: #4c72b0"/>
     <use xlink:href="#m6fd8f728ec" x="170.718876" y="95.264651" style="fill: #4c72b0; stroke: #4c72b0"/>
     <use xlink:href="#m6fd8f728ec" x="173.62988" y="90.810062" style="fill: #4c72b0; stroke: #4c72b0"/>
     <use xlink:href="#m6fd8f728ec" x="237.231029" y="79.736142" style="fill: #4c72b0; stroke: #4c72b0"/>
     <use xlink:href="#m6fd8f728ec" x="246.78588" y="74.205116" style="fill: #4c72b0; stroke: #4c72b0"/>
     <use xlink:href="#m6fd8f728ec" x="82.357708" y="71.270955" style="fill: #4c72b0; stroke: #4c72b0"/>
     <use xlink:href="#m6fd8f728ec" x="186.561315" y="66.988237" style="fill: #4c72b0; stroke: #4c72b0"/>
     <use xlink:href="#m6fd8f728ec" x="68.859299" y="64.640078" style="fill: #4c72b0; stroke: #4c72b0"/>
     <use xlink:href="#m6fd8f728ec" x="310.97427" y="63.985106" style="fill: #4c72b0; stroke: #4c72b0"/>
     <use xlink:href="#m6fd8f728ec" x="238.044125" y="60.47158" style="fill: #4c72b0; stroke: #4c72b0"/>
     <use xlink:href="#m6fd8f728ec" x="239.038157" y="55.41088" style="fill: #4c72b0; stroke: #4c72b0"/>
     <use xlink:href="#m6fd8f728ec" x="181.177794" y="54.800016" style="fill: #4c72b0; stroke: #4c72b0"/>
     <use xlink:href="#m6fd8f728ec" x="340.182514" y="53.701621" style="fill: #4c72b0; stroke: #4c72b0"/>
     <use xlink:href="#m6fd8f728ec" x="289.765168" y="53.156718" style="fill: #4c72b0; stroke: #4c72b0"/>
     <use xlink:href="#m6fd8f728ec" x="184.825216" y="51.391029" style="fill: #4c72b0; stroke: #4c72b0"/>
     <use xlink:href="#m6fd8f728ec" x="279.400597" y="50.043579" style="fill: #4c72b0; stroke: #4c72b0"/>
     <use xlink:href="#m6fd8f728ec" x="186.797298" y="47.196614" style="fill: #4c72b0; stroke: #4c72b0"/>
     <use xlink:href="#m6fd8f728ec" x="262.008535" y="45.68618" style="fill: #4c72b0; stroke: #4c72b0"/>
     <use xlink:href="#m6fd8f728ec" x="266.834214" y="36.470699" style="fill: #4c72b0; stroke: #4c72b0"/>
     <use xlink:href="#m6fd8f728ec" x="134.093144" y="35.987214" style="fill: #4c72b0; stroke: #4c72b0"/>
     <use xlink:href="#m6fd8f728ec" x="208.435849" y="35.21436" style="fill: #4c72b0; stroke: #4c72b0"/>
     <use xlink:href="#m6fd8f728ec" x="332.307447" y="32.201471" style="fill: #4c72b0; stroke: #4c72b0"/>
     <use xlink:href="#m6fd8f728ec" x="195.739521" y="30.66764" style="fill: #4c72b0; stroke: #4c72b0"/>
     <use xlink:href="#m6fd8f728ec" x="178.798701" y="30.60365" style="fill: #4c72b0; stroke: #4c72b0"/>
     <use xlink:href="#m6fd8f728ec" x="184.080058" y="29.020156" style="fill: #4c72b0; stroke: #4c72b0"/>
     <use xlink:href="#m6fd8f728ec" x="289.440948" y="28.48196" style="fill: #4c72b0; stroke: #4c72b0"/>
     <use xlink:href="#m6fd8f728ec" x="150.934836" y="24.310348" style="fill: #4c72b0; stroke: #4c72b0"/>
     <use xlink:href="#m6fd8f728ec" x="124.61823" y="18.586523" style="fill: #4c72b0; stroke: #4c72b0"/>
     <use xlink:href="#m6fd8f728ec" x="252.648516" y="17.783374" style="fill: #4c72b0; stroke: #4c72b0"/>
     <use xlink:href="#m6fd8f728ec" x="391.11066" y="14.271182" style="fill: #4c72b0; stroke: #4c72b0"/>
     <use xlink:href="#m6fd8f728ec" x="41.054851" y="14.126161" style="fill: #4c72b0; stroke: #4c72b0"/>
     <use xlink:href="#m6fd8f728ec" x="218.970284" y="9.350383" style="fill: #4c72b0; stroke: #4c72b0"/>
    </g>
   </g>
   <g id="line2d_1">
    <path d="M 43.02 172.98 
L 273.159333 172.881135 
L 281.962467 172.625427 
L 286.992836 172.288739 
L 290.765619 171.872862 
L 294.538384 171.251344 
L 298.311159 170.348737 
L 300.826356 169.547089 
L 303.341527 168.551591 
L 305.856716 167.331647 
L 308.371905 165.856653 
L 310.887076 164.097525 
L 313.402265 162.028523 
L 315.917454 159.629437 
L 318.432625 156.887854 
L 320.947823 153.801375 
L 323.463011 150.379975 
L 325.978182 146.64774 
L 329.750957 140.557403 
L 334.781325 131.852153 
L 339.811703 123.117148 
L 343.584478 117.053925 
L 346.099648 113.455013 
L 348.614837 110.336982 
L 351.130044 107.797009 
L 352.387621 106.770104 
L 353.645215 105.91687 
L 354.902792 105.244435 
L 356.160404 104.758421 
L 357.41798 104.462939 
L 358.675575 104.360457 
L 359.933169 104.451878 
L 361.190764 104.736376 
L 362.44834 105.211581 
L 363.705953 105.873499 
L 364.963529 106.716556 
L 366.221124 107.733799 
L 367.478736 108.916817 
L 369.993907 111.740487 
L 372.509096 115.098093 
L 375.024285 118.886888 
L 378.79705 125.135537 
L 390.115364 144.562172 
L 392.630571 148.443811 
L 395.14576 152.033476 
L 397.660931 155.299054 
L 400.176119 158.223391 
L 402.69129 160.802542 
L 405.206479 163.043937 
L 407.721668 164.963956 
L 410.236839 166.585674 
L 412.752028 167.936677 
L 415.267217 169.046969 
L 417.782388 169.947321 
L 419.04 170.328247 
L 419.04 170.328247 
" clip-path="url(#p84290b1e84)" style="fill: none; stroke: #55a868; stroke-width: 1.5; stroke-linecap: round"/>
   </g>
   <g id="patch_3">
    <path d="M 43.02 172.98 
L 43.02 12.96 
" style="fill: none; stroke: #cccccc; stroke-width: 1.25; stroke-linejoin: miter; stroke-linecap: square"/>
   </g>
   <g id="patch_4">
    <path d="M 43.02 172.98 
L 419.04 172.98 
" style="fill: none; stroke: #cccccc; stroke-width: 1.25; stroke-linejoin: miter; stroke-linecap: square"/>
   </g>
   <g id="legend_1">
    <g id="patch_5">
     <path d="M 55.62 52.821562 
L 167.22 52.821562 
Q 170.82 52.821562 170.82 49.221563 
L 170.82 25.56 
Q 170.82 21.96 167.22 21.96 
L 55.62 21.96 
Q 52.02 21.96 52.02 25.56 
L 52.02 49.221563 
Q 52.02 52.821562 55.62 52.821562 
z
" style="fill: #ffffff; opacity: 0.8; stroke: #cccccc; stroke-linejoin: miter"/>
    </g>
    <g id="line2d_2">
     <path d="M 59.22 35.744062 
L 77.22 35.744062 
L 95.22 35.744062 
" style="fill: none; stroke: #55a868; stroke-width: 1.5; stroke-linecap: round"/>
    </g>
    <g id="text_3">
     <!-- $dQ/dP$ -->
     <g style="fill: #262626" transform="translate(109.62 42.044062) scale(0.18 -0.18)">
      <defs>
       <path id="DejaVuSans-Oblique-64" d="M 2675 525 
Q 2444 222 2128 65 
Q 1813 -91 1428 -91 
Q 903 -91 598 267 
Q 294 625 294 1247 
Q 294 1766 478 2236 
Q 663 2706 1013 3078 
Q 1244 3325 1534 3454 
Q 1825 3584 2144 3584 
Q 2481 3584 2739 3421 
Q 2997 3259 3138 2956 
L 3513 4863 
L 4091 4863 
L 3144 0 
L 2566 0 
L 2675 525 
z
M 891 1350 
Q 891 897 1095 644 
Q 1300 391 1663 391 
Q 1931 391 2161 520 
Q 2391 650 2566 903 
Q 2750 1166 2856 1509 
Q 2963 1853 2963 2188 
Q 2963 2622 2758 2865 
Q 2553 3109 2194 3109 
Q 1922 3109 1687 2981 
Q 1453 2853 1288 2613 
Q 1106 2353 998 2009 
Q 891 1666 891 1350 
z
" transform="scale(0.015625)"/>
       <path id="DejaVuSans-Oblique-51" d="M 2309 -84 
Q 2275 -88 2237 -89 
Q 2200 -91 2125 -91 
Q 1250 -91 756 411 
Q 263 913 263 1797 
Q 263 2319 452 2844 
Q 641 3369 978 3788 
Q 1369 4269 1858 4509 
Q 2347 4750 2938 4750 
Q 3794 4750 4287 4245 
Q 4781 3741 4781 2869 
Q 4781 1928 4265 1147 
Q 3750 366 2919 44 
L 3553 -825 
L 2847 -825 
L 2309 -84 
z
M 2919 4238 
Q 2400 4238 2003 3986 
Q 1606 3734 1313 3219 
Q 1125 2891 1026 2522 
Q 928 2153 928 1778 
Q 928 1128 1239 775 
Q 1550 422 2119 422 
Q 2631 422 3032 676 
Q 3434 931 3719 1434 
Q 3909 1772 4009 2142 
Q 4109 2513 4109 2881 
Q 4109 3528 3796 3883 
Q 3484 4238 2919 4238 
z
" transform="scale(0.015625)"/>
       <path id="DejaVuSans-2f" d="M 1625 4666 
L 2156 4666 
L 531 -594 
L 0 -594 
L 1625 4666 
z
" transform="scale(0.015625)"/>
       <path id="DejaVuSans-Oblique-50" d="M 1081 4666 
L 2541 4666 
Q 3178 4666 3512 4369 
Q 3847 4072 3847 3500 
Q 3847 2731 3353 2303 
Q 2859 1875 1966 1875 
L 1172 1875 
L 806 0 
L 172 0 
L 1081 4666 
z
M 1613 4147 
L 1275 2394 
L 2069 2394 
Q 2606 2394 2893 2669 
Q 3181 2944 3181 3456 
Q 3181 3784 2986 3965 
Q 2791 4147 2438 4147 
L 1613 4147 
z
" transform="scale(0.015625)"/>
      </defs>
      <use xlink:href="#DejaVuSans-Oblique-64" transform="translate(0 0.015625)"/>
      <use xlink:href="#DejaVuSans-Oblique-51" transform="translate(63.476562 0.015625)"/>
      <use xlink:href="#DejaVuSans-2f" transform="translate(142.1875 0.015625)"/>
      <use xlink:href="#DejaVuSans-Oblique-64" transform="translate(175.878906 0.015625)"/>
      <use xlink:href="#DejaVuSans-Oblique-50" transform="translate(239.355469 0.015625)"/>
     </g>
    </g>
   </g>
  </g>
 </g>
 <defs>
  <clipPath id="p84290b1e84">
   <rect x="43.02" y="12.96" width="376.02" height="160.02"/>
  </clipPath>
 </defs>
</svg>
