<?xml version="1.0" encoding="utf-8" standalone="no"?>
<!DOCTYPE svg PUBLIC "-//W3C//DTD SVG 1.1//EN"
  "http://www.w3.org/Graphics/SVG/1.1/DTD/svg11.dtd">
<svg xmlns:xlink="http://www.w3.org/1999/xlink" width="864pt" height="288pt" viewBox="0 0 864 288" xmlns="http://www.w3.org/2000/svg" version="1.1">
 <metadata>
  <rdf:RDF xmlns:dc="http://purl.org/dc/elements/1.1/" xmlns:cc="http://creativecommons.org/ns#" xmlns:rdf="http://www.w3.org/1999/02/22-rdf-syntax-ns#">
   <cc:Work>
    <dc:type rdf:resource="http://purl.org/dc/dcmitype/StillImage"/>
    <dc:date>2024-07-03T12:26:12.958657</dc:date>
    <dc:format>image/svg+xml</dc:format>
    <dc:creator>
     <cc:Agent>
      <dc:title>Matplotlib v3.9.0, https://matplotlib.org/</dc:title>
     </cc:Agent>
    </dc:creator>
   </cc:Work>
  </rdf:RDF>
 </metadata>
 <defs>
  <style type="text/css">*{stroke-linejoin: round; stroke-linecap: butt}</style>
 </defs>
 <g id="figure_1">
  <g id="patch_1">
   <path d="M 0 288 
L 864 288 
L 864 0 
L 0 0 
z
" style="fill: #ffffff"/>
  </g>
  <g id="axes_1">
   <g id="patch_2">
    <path d="M 12.96 275.04 
L 212.76 275.04 
L 212.76 31.92 
L 12.96 31.92 
z
" style="fill: #ffffff"/>
   </g>
   <g id="matplotlib.axis_1">
    <g id="xtick_1"/>
    <g id="xtick_2"/>
    <g id="xtick_3"/>
    <g id="xtick_4"/>
    <g id="xtick_5"/>
   </g>
   <g id="matplotlib.axis_2">
    <g id="ytick_1"/>
    <g id="ytick_2"/>
    <g id="ytick_3"/>
    <g id="ytick_4"/>
    <g id="ytick_5"/>
    <g id="ytick_6"/>
    <g id="ytick_7"/>
    <g id="ytick_8"/>
   </g>
   <g id="line2d_1">
    <path d="M 12.96 273.408386 
L 26.992777 273.255786 
L 34.343279 272.971194 
L 39.689102 272.551185 
L 43.69846 272.041485 
L 47.70783 271.291955 
L 51.048961 270.426064 
L 53.721867 269.537449 
L 56.394784 268.443397 
L 59.06769 267.114603 
L 61.740607 265.522799 
L 64.413512 263.64253 
L 67.086421 261.453114 
L 69.759332 258.940841 
L 72.43224 256.101217 
L 75.105149 252.941104 
L 77.77806 249.480593 
L 81.119195 244.786915 
L 85.128562 238.753909 
L 94.483746 224.430123 
L 97.156654 220.718319 
L 99.829565 217.371138 
L 101.834247 215.161622 
L 103.838926 213.253987 
L 105.843608 211.683 
L 107.848296 210.477903 
L 109.184749 209.889316 
L 110.521202 209.478609 
L 111.857657 209.249295 
L 113.19411 209.203331 
L 114.530569 209.341121 
L 115.867025 209.66147 
L 117.203477 210.161652 
L 118.53993 210.837397 
L 120.544612 212.167324 
L 122.549297 213.854066 
L 124.553979 215.866441 
L 126.558661 218.168042 
L 129.231572 221.616223 
L 132.572707 226.389303 
L 137.2503 233.55913 
L 143.932576 243.806795 
L 147.273711 248.572259 
L 150.614851 252.941104 
L 153.28776 256.101217 
L 155.960665 258.940837 
L 158.633579 261.453114 
L 161.306488 263.64253 
L 163.979393 265.522799 
L 166.65231 267.114603 
L 169.325216 268.443397 
L 171.998121 269.537443 
L 174.671039 270.426064 
L 178.01217 271.291955 
L 181.353314 271.935238 
L 185.362672 272.47987 
L 190.040268 272.887925 
L 196.054317 273.179765 
L 204.741272 273.356013 
L 212.76 273.408386 
L 212.76 273.408386 
" clip-path="url(#p0fd8bb557d)" style="fill: none; stroke: #55a868; stroke-width: 2; stroke-linecap: round"/>
   </g>
   <g id="line2d_2">
    <path d="M 12.96 273.429934 
L 133.240933 273.341093 
L 135.913848 273.089198 
L 137.2503 272.793737 
L 138.586756 272.27927 
L 139.923209 271.41395 
L 140.591435 270.793149 
L 141.259662 270.008501 
L 141.927891 269.025529 
L 142.596117 267.805078 
L 143.26435 266.303336 
L 143.932576 264.472213 
L 144.600802 262.259798 
L 145.269032 259.611291 
L 145.937258 256.470258 
L 147.273711 248.486385 
L 148.610163 237.892894 
L 149.946619 224.385839 
L 151.283078 207.864542 
L 152.619533 188.522745 
L 154.624212 155.549844 
L 157.965347 99.71185 
L 159.301806 81.551646 
L 159.970035 74.163325 
L 160.638261 68.130045 
L 161.306488 63.589865 
L 161.974714 60.648501 
L 162.64294 59.375321 
L 163.311167 59.800552 
L 163.979393 61.914062 
L 164.647619 65.665851 
L 165.315846 70.967917 
L 165.984084 77.697921 
L 167.320537 94.807627 
L 168.656989 115.526437 
L 174.002812 203.278394 
L 175.339265 220.536201 
L 176.675718 234.797364 
L 178.01217 246.097077 
L 179.348623 254.6973 
L 180.685088 260.993576 
L 182.02154 265.432121 
L 182.689767 267.092277 
L 183.357993 268.447614 
L 184.026219 269.544136 
L 185.362672 271.122051 
L 186.699125 272.102143 
L 188.035589 272.689945 
L 189.372042 273.030444 
L 191.376721 273.280648 
L 194.717853 273.405248 
L 206.077725 273.429921 
L 212.76 273.429934 
L 212.76 273.429934 
" clip-path="url(#p0fd8bb557d)" style="fill: none; stroke: #c44e52; stroke-width: 2; stroke-linecap: round"/>
   </g>
   <g id="line2d_3">
    <path d="M 12.96 273.429934 
L 133.240933 273.341093 
L 135.913848 273.089198 
L 137.2503 272.793737 
L 138.586756 272.27927 
L 139.923209 271.41395 
L 140.591435 270.793149 
L 141.259662 270.008501 
L 141.927891 269.025529 
L 142.596117 267.805078 
L 143.26435 266.303336 
L 143.932576 264.472213 
L 144.600802 262.259798 
L 145.269032 259.611291 
L 145.937258 256.470258 
L 147.273711 248.486385 
L 148.610163 237.892894 
L 149.946619 224.385839 
L 151.283078 207.864542 
L 152.619533 188.522745 
L 154.624212 155.549844 
L 157.965347 99.71185 
L 159.301806 81.551646 
L 159.970035 74.163325 
L 160.638261 68.130045 
L 161.306488 63.589865 
L 161.974714 60.648501 
L 162.64294 59.375321 
L 163.311167 59.800552 
L 163.979393 61.914062 
L 164.647619 65.665851 
L 165.315846 70.967917 
L 165.984084 77.697921 
L 167.320537 94.807627 
L 168.656989 115.526437 
L 174.002812 203.278394 
L 175.339265 220.536201 
L 176.675718 234.797364 
L 178.01217 246.097077 
L 179.348623 254.6973 
L 180.685088 260.993576 
L 182.02154 265.432121 
L 182.689767 267.092277 
L 183.357993 268.447614 
L 184.026219 269.544136 
L 185.362672 271.122051 
L 186.699125 272.102143 
L 188.035589 272.689945 
L 189.372042 273.030444 
L 191.376721 273.280648 
L 194.717853 273.405248 
L 206.077725 273.429921 
L 212.76 273.429934 
L 212.76 273.429934 
" clip-path="url(#p0fd8bb557d)" style="fill: none; stroke: #c44e52; stroke-width: 2; stroke-linecap: round"/>
   </g>
   <g id="line2d_4">
    <path d="M 12.96 273.408386 
L 26.992777 273.255786 
L 34.343279 272.971194 
L 39.689102 272.551185 
L 43.69846 272.041485 
L 47.70783 271.291955 
L 51.048961 270.426064 
L 53.721867 269.537449 
L 56.394784 268.443397 
L 59.06769 267.114603 
L 61.740607 265.522799 
L 64.413512 263.64253 
L 67.086421 261.453114 
L 69.759332 258.940841 
L 72.43224 256.101217 
L 75.105149 252.941104 
L 77.77806 249.480593 
L 81.119195 244.786915 
L 85.128562 238.753909 
L 94.483746 224.430123 
L 97.156654 220.718319 
L 99.829565 217.371138 
L 101.834247 215.161622 
L 103.838926 213.253987 
L 105.843608 211.683 
L 107.848296 210.477903 
L 109.184749 209.889316 
L 110.521202 209.478609 
L 111.857657 209.249295 
L 113.19411 209.203331 
L 114.530569 209.341121 
L 115.867025 209.66147 
L 117.203477 210.161652 
L 118.53993 210.837397 
L 120.544612 212.167324 
L 122.549297 213.854066 
L 124.553979 215.866441 
L 126.558661 218.168042 
L 129.231572 221.616223 
L 132.572707 226.389303 
L 137.2503 233.55913 
L 143.932576 243.806795 
L 147.273711 248.572259 
L 150.614851 252.941104 
L 153.28776 256.101217 
L 155.960665 258.940837 
L 158.633579 261.453114 
L 161.306488 263.64253 
L 163.979393 265.522799 
L 166.65231 267.114603 
L 169.325216 268.443397 
L 171.998121 269.537443 
L 174.671039 270.426064 
L 178.01217 271.291955 
L 181.353314 271.935238 
L 185.362672 272.47987 
L 190.040268 272.887925 
L 196.054317 273.179765 
L 204.741272 273.356013 
L 212.76 273.408386 
L 212.76 273.408386 
" clip-path="url(#p0fd8bb557d)" style="fill: none; stroke: #55a868; stroke-width: 2; stroke-linecap: round"/>
   </g>
   <g id="patch_3">
    <path d="M 12.96 275.04 
L 212.76 275.04 
" style="fill: none; stroke: #cccccc; stroke-width: 1.25; stroke-linejoin: miter; stroke-linecap: square"/>
   </g>
   <g id="text_1">
    <!-- $N = 0$ -->
    <g style="fill: #ffffff" transform="translate(89.28 25.92) scale(0.18 -0.18)">
     <defs>
      <path id="DejaVuSans-Oblique-4e" d="M 1081 4666 
L 1931 4666 
L 3219 666 
L 4000 4666 
L 4616 4666 
L 3706 0 
L 2853 0 
L 1569 4025 
L 788 0 
L 172 0 
L 1081 4666 
z
" transform="scale(0.015625)"/>
      <path id="DejaVuSans-3d" d="M 678 2906 
L 4684 2906 
L 4684 2381 
L 678 2381 
L 678 2906 
z
M 678 1631 
L 4684 1631 
L 4684 1100 
L 678 1100 
L 678 1631 
z
" transform="scale(0.015625)"/>
      <path id="DejaVuSans-30" d="M 2034 4250 
Q 1547 4250 1301 3770 
Q 1056 3291 1056 2328 
Q 1056 1369 1301 889 
Q 1547 409 2034 409 
Q 2525 409 2770 889 
Q 3016 1369 3016 2328 
Q 3016 3291 2770 3770 
Q 2525 4250 2034 4250 
z
M 2034 4750 
Q 2819 4750 3233 4129 
Q 3647 3509 3647 2328 
Q 3647 1150 3233 529 
Q 2819 -91 2034 -91 
Q 1250 -91 836 529 
Q 422 1150 422 2328 
Q 422 3509 836 4129 
Q 1250 4750 2034 4750 
z
" transform="scale(0.015625)"/>
     </defs>
     <use xlink:href="#DejaVuSans-Oblique-4e" transform="translate(0 0.78125)"/>
     <use xlink:href="#DejaVuSans-3d" transform="translate(94.287109 0.78125)"/>
     <use xlink:href="#DejaVuSans-30" transform="translate(197.558594 0.78125)"/>
    </g>
   </g>
   <g id="legend_1">
    <g id="patch_4">
     <path d="M 25.56 97.243125 
L 97.38 97.243125 
Q 100.98 97.243125 100.98 93.643125 
L 100.98 44.52 
Q 100.98 40.92 97.38 40.92 
L 25.56 40.92 
Q 21.96 40.92 21.96 44.52 
L 21.96 93.643125 
Q 21.96 97.243125 25.56 97.243125 
z
" style="fill: #ffffff; opacity: 0.8; stroke: #cccccc; stroke-linejoin: miter"/>
    </g>
    <g id="line2d_5">
     <path d="M 29.16 54.704063 
L 47.16 54.704063 
L 65.16 54.704063 
" style="fill: none; stroke: #55a868; stroke-width: 2; stroke-linecap: round"/>
    </g>
    <g id="text_2">
     <!-- $P$ -->
     <g style="fill: #262626" transform="translate(79.56 61.004063) scale(0.18 -0.18)">
      <defs>
       <path id="DejaVuSans-Oblique-50" d="M 1081 4666 
L 2541 4666 
Q 3178 4666 3512 4369 
Q 3847 4072 3847 3500 
Q 3847 2731 3353 2303 
Q 2859 1875 1966 1875 
L 1172 1875 
L 806 0 
L 172 0 
L 1081 4666 
z
M 1613 4147 
L 1275 2394 
L 2069 2394 
Q 2606 2394 2893 2669 
Q 3181 2944 3181 3456 
Q 3181 3784 2986 3965 
Q 2791 4147 2438 4147 
L 1613 4147 
z
" transform="scale(0.015625)"/>
      </defs>
      <use xlink:href="#DejaVuSans-Oblique-50" transform="translate(0 0.09375)"/>
     </g>
    </g>
    <g id="line2d_6">
     <path d="M 29.16 80.165625 
L 47.16 80.165625 
L 65.16 80.165625 
" style="fill: none; stroke: #c44e52; stroke-width: 2; stroke-linecap: round"/>
    </g>
    <g id="text_3">
     <!-- $Q$ -->
     <g style="fill: #262626" transform="translate(79.56 86.465625) scale(0.18 -0.18)">
      <defs>
       <path id="DejaVuSans-Oblique-51" d="M 2309 -84 
Q 2275 -88 2237 -89 
Q 2200 -91 2125 -91 
Q 1250 -91 756 411 
Q 263 913 263 1797 
Q 263 2319 452 2844 
Q 641 3369 978 3788 
Q 1369 4269 1858 4509 
Q 2347 4750 2938 4750 
Q 3794 4750 4287 4245 
Q 4781 3741 4781 2869 
Q 4781 1928 4265 1147 
Q 3750 366 2919 44 
L 3553 -825 
L 2847 -825 
L 2309 -84 
z
M 2919 4238 
Q 2400 4238 2003 3986 
Q 1606 3734 1313 3219 
Q 1125 2891 1026 2522 
Q 928 2153 928 1778 
Q 928 1128 1239 775 
Q 1550 422 2119 422 
Q 2631 422 3032 676 
Q 3434 931 3719 1434 
Q 3909 1772 4009 2142 
Q 4109 2513 4109 2881 
Q 4109 3528 3796 3883 
Q 3484 4238 2919 4238 
z
" transform="scale(0.015625)"/>
      </defs>
      <use xlink:href="#DejaVuSans-Oblique-51" transform="translate(0 0.78125)"/>
     </g>
    </g>
   </g>
  </g>
  <g id="axes_2"/>
  <g id="axes_3"/>
  <g id="axes_4"/>
 </g>
 <defs>
  <clipPath id="p0fd8bb557d">
   <rect x="12.96" y="31.92" width="199.8" height="243.12"/>
  </clipPath>
 </defs>
</svg>
