<?xml version="1.0" encoding="utf-8" standalone="no"?>
<!DOCTYPE svg PUBLIC "-//W3C//DTD SVG 1.1//EN"
  "http://www.w3.org/Graphics/SVG/1.1/DTD/svg11.dtd">
<svg xmlns:xlink="http://www.w3.org/1999/xlink" width="864pt" height="288pt" viewBox="0 0 864 288" xmlns="http://www.w3.org/2000/svg" version="1.1">
 <metadata>
  <rdf:RDF xmlns:dc="http://purl.org/dc/elements/1.1/" xmlns:cc="http://creativecommons.org/ns#" xmlns:rdf="http://www.w3.org/1999/02/22-rdf-syntax-ns#">
   <cc:Work>
    <dc:type rdf:resource="http://purl.org/dc/dcmitype/StillImage"/>
    <dc:date>2024-07-03T12:26:13.954552</dc:date>
    <dc:format>image/svg+xml</dc:format>
    <dc:creator>
     <cc:Agent>
      <dc:title>Matplotlib v3.9.0, https://matplotlib.org/</dc:title>
     </cc:Agent>
    </dc:creator>
   </cc:Work>
  </rdf:RDF>
 </metadata>
 <defs>
  <style type="text/css">*{stroke-linejoin: round; stroke-linecap: butt}</style>
 </defs>
 <g id="figure_1">
  <g id="patch_1">
   <path d="M 0 288 
L 864 288 
L 864 0 
L 0 0 
z
" style="fill: #ffffff"/>
  </g>
  <g id="axes_1">
   <g id="patch_2">
    <path d="M 12.96 275.04 
L 212.76 275.04 
L 212.76 31.92 
L 12.96 31.92 
z
" style="fill: #ffffff"/>
   </g>
   <g id="matplotlib.axis_1">
    <g id="xtick_1"/>
    <g id="xtick_2"/>
    <g id="xtick_3"/>
    <g id="xtick_4"/>
    <g id="xtick_5"/>
   </g>
   <g id="matplotlib.axis_2">
    <g id="ytick_1"/>
    <g id="ytick_2"/>
    <g id="ytick_3"/>
    <g id="ytick_4"/>
    <g id="ytick_5"/>
    <g id="ytick_6"/>
    <g id="ytick_7"/>
    <g id="ytick_8"/>
   </g>
   <g id="line2d_1">
    <path d="M 12.96 273.408386 
L 26.992777 273.255786 
L 34.343279 272.971194 
L 39.689102 272.551185 
L 43.69846 272.041485 
L 47.70783 271.291955 
L 51.048961 270.426064 
L 53.721867 269.537449 
L 56.394784 268.443397 
L 59.06769 267.114603 
L 61.740607 265.522799 
L 64.413512 263.64253 
L 67.086421 261.453114 
L 69.759332 258.940841 
L 72.43224 256.101217 
L 75.105149 252.941104 
L 77.77806 249.480593 
L 81.119195 244.786915 
L 85.128562 238.753909 
L 94.483746 224.430123 
L 97.156654 220.718319 
L 99.829565 217.371138 
L 101.834247 215.161622 
L 103.838926 213.253987 
L 105.843608 211.683 
L 107.848296 210.477903 
L 109.184749 209.889316 
L 110.521202 209.478609 
L 111.857657 209.249295 
L 113.19411 209.203331 
L 114.530569 209.341121 
L 115.867025 209.66147 
L 117.203477 210.161652 
L 118.53993 210.837397 
L 120.544612 212.167324 
L 122.549297 213.854066 
L 124.553979 215.866441 
L 126.558661 218.168042 
L 129.231572 221.616223 
L 132.572707 226.389303 
L 137.2503 233.55913 
L 143.932576 243.806795 
L 147.273711 248.572259 
L 150.614851 252.941104 
L 153.28776 256.101217 
L 155.960665 258.940837 
L 158.633579 261.453114 
L 161.306488 263.64253 
L 163.979393 265.522799 
L 166.65231 267.114603 
L 169.325216 268.443397 
L 171.998121 269.537443 
L 174.671039 270.426064 
L 178.01217 271.291955 
L 181.353314 271.935238 
L 185.362672 272.47987 
L 190.040268 272.887925 
L 196.054317 273.179765 
L 204.741272 273.356013 
L 212.76 273.408386 
L 212.76 273.408386 
" clip-path="url(#pa4a9fa4cb3)" style="fill: none; stroke: #55a868; stroke-width: 2; stroke-linecap: round"/>
   </g>
   <g id="line2d_2">
    <path d="M 12.96 273.429934 
L 133.240933 273.341093 
L 135.913848 273.089198 
L 137.2503 272.793737 
L 138.586756 272.27927 
L 139.923209 271.41395 
L 140.591435 270.793149 
L 141.259662 270.008501 
L 141.927891 269.025529 
L 142.596117 267.805078 
L 143.26435 266.303336 
L 143.932576 264.472213 
L 144.600802 262.259798 
L 145.269032 259.611291 
L 145.937258 256.470258 
L 147.273711 248.486385 
L 148.610163 237.892894 
L 149.946619 224.385839 
L 151.283078 207.864542 
L 152.619533 188.522745 
L 154.624212 155.549844 
L 157.965347 99.71185 
L 159.301806 81.551646 
L 159.970035 74.163325 
L 160.638261 68.130045 
L 161.306488 63.589865 
L 161.974714 60.648501 
L 162.64294 59.375321 
L 163.311167 59.800552 
L 163.979393 61.914062 
L 164.647619 65.665851 
L 165.315846 70.967917 
L 165.984084 77.697921 
L 167.320537 94.807627 
L 168.656989 115.526437 
L 174.002812 203.278394 
L 175.339265 220.536201 
L 176.675718 234.797364 
L 178.01217 246.097077 
L 179.348623 254.6973 
L 180.685088 260.993576 
L 182.02154 265.432121 
L 182.689767 267.092277 
L 183.357993 268.447614 
L 184.026219 269.544136 
L 185.362672 271.122051 
L 186.699125 272.102143 
L 188.035589 272.689945 
L 189.372042 273.030444 
L 191.376721 273.280648 
L 194.717853 273.405248 
L 206.077725 273.429921 
L 212.76 273.429934 
L 212.76 273.429934 
" clip-path="url(#pa4a9fa4cb3)" style="fill: none; stroke: #c44e52; stroke-width: 2; stroke-linecap: round"/>
   </g>
   <g id="line2d_3">
    <path d="M 12.96 273.429934 
L 133.240933 273.341093 
L 135.913848 273.089198 
L 137.2503 272.793737 
L 138.586756 272.27927 
L 139.923209 271.41395 
L 140.591435 270.793149 
L 141.259662 270.008501 
L 141.927891 269.025529 
L 142.596117 267.805078 
L 143.26435 266.303336 
L 143.932576 264.472213 
L 144.600802 262.259798 
L 145.269032 259.611291 
L 145.937258 256.470258 
L 147.273711 248.486385 
L 148.610163 237.892894 
L 149.946619 224.385839 
L 151.283078 207.864542 
L 152.619533 188.522745 
L 154.624212 155.549844 
L 157.965347 99.71185 
L 159.301806 81.551646 
L 159.970035 74.163325 
L 160.638261 68.130045 
L 161.306488 63.589865 
L 161.974714 60.648501 
L 162.64294 59.375321 
L 163.311167 59.800552 
L 163.979393 61.914062 
L 164.647619 65.665851 
L 165.315846 70.967917 
L 165.984084 77.697921 
L 167.320537 94.807627 
L 168.656989 115.526437 
L 174.002812 203.278394 
L 175.339265 220.536201 
L 176.675718 234.797364 
L 178.01217 246.097077 
L 179.348623 254.6973 
L 180.685088 260.993576 
L 182.02154 265.432121 
L 182.689767 267.092277 
L 183.357993 268.447614 
L 184.026219 269.544136 
L 185.362672 271.122051 
L 186.699125 272.102143 
L 188.035589 272.689945 
L 189.372042 273.030444 
L 191.376721 273.280648 
L 194.717853 273.405248 
L 206.077725 273.429921 
L 212.76 273.429934 
L 212.76 273.429934 
" clip-path="url(#pa4a9fa4cb3)" style="fill: none; stroke: #c44e52; stroke-width: 2; stroke-linecap: round"/>
   </g>
   <g id="line2d_4">
    <path d="M 12.96 273.408386 
L 26.992777 273.255786 
L 34.343279 272.971194 
L 39.689102 272.551185 
L 43.69846 272.041485 
L 47.70783 271.291955 
L 51.048961 270.426064 
L 53.721867 269.537449 
L 56.394784 268.443397 
L 59.06769 267.114603 
L 61.740607 265.522799 
L 64.413512 263.64253 
L 67.086421 261.453114 
L 69.759332 258.940841 
L 72.43224 256.101217 
L 75.105149 252.941104 
L 77.77806 249.480593 
L 81.119195 244.786915 
L 85.128562 238.753909 
L 94.483746 224.430123 
L 97.156654 220.718319 
L 99.829565 217.371138 
L 101.834247 215.161622 
L 103.838926 213.253987 
L 105.843608 211.683 
L 107.848296 210.477903 
L 109.184749 209.889316 
L 110.521202 209.478609 
L 111.857657 209.249295 
L 113.19411 209.203331 
L 114.530569 209.341121 
L 115.867025 209.66147 
L 117.203477 210.161652 
L 118.53993 210.837397 
L 120.544612 212.167324 
L 122.549297 213.854066 
L 124.553979 215.866441 
L 126.558661 218.168042 
L 129.231572 221.616223 
L 132.572707 226.389303 
L 137.2503 233.55913 
L 143.932576 243.806795 
L 147.273711 248.572259 
L 150.614851 252.941104 
L 153.28776 256.101217 
L 155.960665 258.940837 
L 158.633579 261.453114 
L 161.306488 263.64253 
L 163.979393 265.522799 
L 166.65231 267.114603 
L 169.325216 268.443397 
L 171.998121 269.537443 
L 174.671039 270.426064 
L 178.01217 271.291955 
L 181.353314 271.935238 
L 185.362672 272.47987 
L 190.040268 272.887925 
L 196.054317 273.179765 
L 204.741272 273.356013 
L 212.76 273.408386 
L 212.76 273.408386 
" clip-path="url(#pa4a9fa4cb3)" style="fill: none; stroke: #55a868; stroke-width: 2; stroke-linecap: round"/>
   </g>
   <g id="patch_3">
    <path d="M 12.96 275.04 
L 212.76 275.04 
" style="fill: none; stroke: #cccccc; stroke-width: 1.25; stroke-linejoin: miter; stroke-linecap: square"/>
   </g>
   <g id="text_1">
    <!-- $N = 0$ -->
    <g style="fill: #ffffff" transform="translate(89.28 25.92) scale(0.18 -0.18)">
     <defs>
      <path id="DejaVuSans-Oblique-4e" d="M 1081 4666 
L 1931 4666 
L 3219 666 
L 4000 4666 
L 4616 4666 
L 3706 0 
L 2853 0 
L 1569 4025 
L 788 0 
L 172 0 
L 1081 4666 
z
" transform="scale(0.015625)"/>
      <path id="DejaVuSans-3d" d="M 678 2906 
L 4684 2906 
L 4684 2381 
L 678 2381 
L 678 2906 
z
M 678 1631 
L 4684 1631 
L 4684 1100 
L 678 1100 
L 678 1631 
z
" transform="scale(0.015625)"/>
      <path id="DejaVuSans-30" d="M 2034 4250 
Q 1547 4250 1301 3770 
Q 1056 3291 1056 2328 
Q 1056 1369 1301 889 
Q 1547 409 2034 409 
Q 2525 409 2770 889 
Q 3016 1369 3016 2328 
Q 3016 3291 2770 3770 
Q 2525 4250 2034 4250 
z
M 2034 4750 
Q 2819 4750 3233 4129 
Q 3647 3509 3647 2328 
Q 3647 1150 3233 529 
Q 2819 -91 2034 -91 
Q 1250 -91 836 529 
Q 422 1150 422 2328 
Q 422 3509 836 4129 
Q 1250 4750 2034 4750 
z
" transform="scale(0.015625)"/>
     </defs>
     <use xlink:href="#DejaVuSans-Oblique-4e" transform="translate(0 0.78125)"/>
     <use xlink:href="#DejaVuSans-3d" transform="translate(94.287109 0.78125)"/>
     <use xlink:href="#DejaVuSans-30" transform="translate(197.558594 0.78125)"/>
    </g>
   </g>
   <g id="legend_1">
    <g id="patch_4">
     <path d="M 25.56 126.763125 
L 97.38 126.763125 
Q 100.98 126.763125 100.98 123.163125 
L 100.98 44.52 
Q 100.98 40.92 97.38 40.92 
L 25.56 40.92 
Q 21.96 40.92 21.96 44.52 
L 21.96 123.163125 
Q 21.96 126.763125 25.56 126.763125 
z
" style="fill: #ffffff; opacity: 0.8; stroke: #cccccc; stroke-linejoin: miter"/>
    </g>
    <g id="line2d_5">
     <path d="M 29.16 54.704063 
L 47.16 54.704063 
L 65.16 54.704063 
" style="fill: none; stroke: #55a868; stroke-width: 2; stroke-linecap: round"/>
    </g>
    <g id="text_2">
     <!-- $P$ -->
     <g style="fill: #262626" transform="translate(79.56 61.004063) scale(0.18 -0.18)">
      <defs>
       <path id="DejaVuSans-Oblique-50" d="M 1081 4666 
L 2541 4666 
Q 3178 4666 3512 4369 
Q 3847 4072 3847 3500 
Q 3847 2731 3353 2303 
Q 2859 1875 1966 1875 
L 1172 1875 
L 806 0 
L 172 0 
L 1081 4666 
z
M 1613 4147 
L 1275 2394 
L 2069 2394 
Q 2606 2394 2893 2669 
Q 3181 2944 3181 3456 
Q 3181 3784 2986 3965 
Q 2791 4147 2438 4147 
L 1613 4147 
z
" transform="scale(0.015625)"/>
      </defs>
      <use xlink:href="#DejaVuSans-Oblique-50" transform="translate(0 0.09375)"/>
     </g>
    </g>
    <g id="line2d_6">
     <path d="M 29.16 80.165625 
L 47.16 80.165625 
L 65.16 80.165625 
" style="fill: none; stroke: #c44e52; stroke-width: 2; stroke-linecap: round"/>
    </g>
    <g id="text_3">
     <!-- $Q$ -->
     <g style="fill: #262626" transform="translate(79.56 86.465625) scale(0.18 -0.18)">
      <defs>
       <path id="DejaVuSans-Oblique-51" d="M 2309 -84 
Q 2275 -88 2237 -89 
Q 2200 -91 2125 -91 
Q 1250 -91 756 411 
Q 263 913 263 1797 
Q 263 2319 452 2844 
Q 641 3369 978 3788 
Q 1369 4269 1858 4509 
Q 2347 4750 2938 4750 
Q 3794 4750 4287 4245 
Q 4781 3741 4781 2869 
Q 4781 1928 4265 1147 
Q 3750 366 2919 44 
L 3553 -825 
L 2847 -825 
L 2309 -84 
z
M 2919 4238 
Q 2400 4238 2003 3986 
Q 1606 3734 1313 3219 
Q 1125 2891 1026 2522 
Q 928 2153 928 1778 
Q 928 1128 1239 775 
Q 1550 422 2119 422 
Q 2631 422 3032 676 
Q 3434 931 3719 1434 
Q 3909 1772 4009 2142 
Q 4109 2513 4109 2881 
Q 4109 3528 3796 3883 
Q 3484 4238 2919 4238 
z
" transform="scale(0.015625)"/>
      </defs>
      <use xlink:href="#DejaVuSans-Oblique-51" transform="translate(0 0.78125)"/>
     </g>
    </g>
    <g id="patch_5">
     <path d="M 29.16 115.985625 
L 65.16 115.985625 
L 65.16 103.385625 
L 29.16 103.385625 
z
" style="fill: #4c72b0; stroke: #4c72b0; stroke-linejoin: miter"/>
    </g>
    <g id="text_4">
     <!-- $\tilde{Q}$ -->
     <g style="fill: #262626" transform="translate(79.56 115.985625) scale(0.18 -0.18)">
      <defs>
       <path id="DejaVuSans-303" d="M -1621 4281 
L -1799 4453 
Q -1867 4516 -1919 4545 
Q -1971 4575 -2011 4575 
Q -2130 4575 -2186 4461 
Q -2242 4347 -2249 4091 
L -2639 4091 
Q -2633 4513 -2473 4742 
Q -2314 4972 -2030 4972 
Q -1911 4972 -1811 4928 
Q -1711 4884 -1596 4781 
L -1417 4609 
Q -1349 4547 -1297 4517 
Q -1246 4488 -1205 4488 
Q -1086 4488 -1030 4602 
Q -974 4716 -967 4972 
L -577 4972 
Q -583 4550 -742 4320 
Q -902 4091 -1186 4091 
Q -1305 4091 -1405 4134 
Q -1505 4178 -1621 4281 
z
" transform="scale(0.015625)"/>
      </defs>
      <use xlink:href="#DejaVuSans-303" transform="translate(73.912109 23.3125)"/>
      <use xlink:href="#DejaVuSans-Oblique-51" transform="translate(0 0.515625)"/>
     </g>
    </g>
   </g>
  </g>
  <g id="axes_2">
   <g id="patch_6">
    <path d="M 225.72 275.04 
L 425.52 275.04 
L 425.52 31.92 
L 225.72 31.92 
z
" style="fill: #ffffff"/>
   </g>
   <g id="matplotlib.axis_3">
    <g id="xtick_6"/>
    <g id="xtick_7"/>
    <g id="xtick_8"/>
    <g id="xtick_9"/>
    <g id="xtick_10"/>
   </g>
   <g id="matplotlib.axis_4">
    <g id="ytick_9"/>
    <g id="ytick_10"/>
    <g id="ytick_11"/>
    <g id="ytick_12"/>
    <g id="ytick_13"/>
    <g id="ytick_14"/>
    <g id="ytick_15"/>
    <g id="ytick_16"/>
   </g>
   <g id="patch_7">
    <path d="M 240.444041 273.429934 
L 244.231374 273.429934 
L 244.231374 273.32376 
L 240.444041 273.32376 
z
" clip-path="url(#p10c1f238fd)" style="fill: #4c72b0; stroke: #ffffff; stroke-linejoin: miter"/>
   </g>
   <g id="patch_8">
    <path d="M 244.231374 273.429934 
L 248.018712 273.429934 
L 248.018712 273.217587 
L 244.231374 273.217587 
z
" clip-path="url(#p10c1f238fd)" style="fill: #4c72b0; stroke: #ffffff; stroke-linejoin: miter"/>
   </g>
   <g id="patch_9">
    <path d="M 248.018712 273.429934 
L 251.806045 273.429934 
L 251.806045 273.217587 
L 248.018712 273.217587 
z
" clip-path="url(#p10c1f238fd)" style="fill: #4c72b0; stroke: #ffffff; stroke-linejoin: miter"/>
   </g>
   <g id="patch_10">
    <path d="M 251.806045 273.429934 
L 255.593377 273.429934 
L 255.593377 272.580546 
L 251.806045 272.580546 
z
" clip-path="url(#p10c1f238fd)" style="fill: #4c72b0; stroke: #ffffff; stroke-linejoin: miter"/>
   </g>
   <g id="patch_11">
    <path d="M 255.593377 273.429934 
L 259.38071 273.429934 
L 259.38071 272.899067 
L 255.593377 272.899067 
z
" clip-path="url(#p10c1f238fd)" style="fill: #4c72b0; stroke: #ffffff; stroke-linejoin: miter"/>
   </g>
   <g id="patch_12">
    <path d="M 259.38071 273.429934 
L 263.168048 273.429934 
L 263.168048 271.518815 
L 259.38071 271.518815 
z
" clip-path="url(#p10c1f238fd)" style="fill: #4c72b0; stroke: #ffffff; stroke-linejoin: miter"/>
   </g>
   <g id="patch_13">
    <path d="M 263.168048 273.429934 
L 266.955381 273.429934 
L 266.955381 271.094119 
L 263.168048 271.094119 
z
" clip-path="url(#p10c1f238fd)" style="fill: #4c72b0; stroke: #ffffff; stroke-linejoin: miter"/>
   </g>
   <g id="patch_14">
    <path d="M 266.955381 273.429934 
L 270.742713 273.429934 
L 270.742713 271.306465 
L 266.955381 271.306465 
z
" clip-path="url(#p10c1f238fd)" style="fill: #4c72b0; stroke: #ffffff; stroke-linejoin: miter"/>
   </g>
   <g id="patch_15">
    <path d="M 270.742713 273.429934 
L 274.530046 273.429934 
L 274.530046 268.227436 
L 270.742713 268.227436 
z
" clip-path="url(#p10c1f238fd)" style="fill: #4c72b0; stroke: #ffffff; stroke-linejoin: miter"/>
   </g>
   <g id="patch_16">
    <path d="M 274.530046 273.429934 
L 278.317381 273.429934 
L 278.317381 267.802747 
L 274.530046 267.802747 
z
" clip-path="url(#p10c1f238fd)" style="fill: #4c72b0; stroke: #ffffff; stroke-linejoin: miter"/>
   </g>
   <g id="patch_17">
    <path d="M 278.317381 273.429934 
L 282.104717 273.429934 
L 282.104717 264.936067 
L 278.317381 264.936067 
z
" clip-path="url(#p10c1f238fd)" style="fill: #4c72b0; stroke: #ffffff; stroke-linejoin: miter"/>
   </g>
   <g id="patch_18">
    <path d="M 282.104717 273.429934 
L 285.892049 273.429934 
L 285.892049 260.476777 
L 282.104717 260.476777 
z
" clip-path="url(#p10c1f238fd)" style="fill: #4c72b0; stroke: #ffffff; stroke-linejoin: miter"/>
   </g>
   <g id="patch_19">
    <path d="M 285.892049 273.429934 
L 289.679385 273.429934 
L 289.679385 259.30888 
L 285.892049 259.30888 
z
" clip-path="url(#p10c1f238fd)" style="fill: #4c72b0; stroke: #ffffff; stroke-linejoin: miter"/>
   </g>
   <g id="patch_20">
    <path d="M 289.679385 273.429934 
L 293.466717 273.429934 
L 293.466717 256.54836 
L 289.679385 256.54836 
z
" clip-path="url(#p10c1f238fd)" style="fill: #4c72b0; stroke: #ffffff; stroke-linejoin: miter"/>
   </g>
   <g id="patch_21">
    <path d="M 293.466717 273.429934 
L 297.254053 273.429934 
L 297.254053 251.6644 
L 293.466717 251.6644 
z
" clip-path="url(#p10c1f238fd)" style="fill: #4c72b0; stroke: #ffffff; stroke-linejoin: miter"/>
   </g>
   <g id="patch_22">
    <path d="M 297.254053 273.429934 
L 301.041387 273.429934 
L 301.041387 242.745828 
L 297.254053 242.745828 
z
" clip-path="url(#p10c1f238fd)" style="fill: #4c72b0; stroke: #ffffff; stroke-linejoin: miter"/>
   </g>
   <g id="patch_23">
    <path d="M 301.041387 273.429934 
L 304.828721 273.429934 
L 304.828721 238.923586 
L 301.041387 238.923586 
z
" clip-path="url(#p10c1f238fd)" style="fill: #4c72b0; stroke: #ffffff; stroke-linejoin: miter"/>
   </g>
   <g id="patch_24">
    <path d="M 304.828721 273.429934 
L 308.616055 273.429934 
L 308.616055 237.755679 
L 304.828721 237.755679 
z
" clip-path="url(#p10c1f238fd)" style="fill: #4c72b0; stroke: #ffffff; stroke-linejoin: miter"/>
   </g>
   <g id="patch_25">
    <path d="M 308.616055 273.429934 
L 312.403389 273.429934 
L 312.403389 234.570478 
L 308.616055 234.570478 
z
" clip-path="url(#p10c1f238fd)" style="fill: #4c72b0; stroke: #ffffff; stroke-linejoin: miter"/>
   </g>
   <g id="patch_26">
    <path d="M 312.403389 273.429934 
L 316.190723 273.429934 
L 316.190723 232.44701 
L 312.403389 232.44701 
z
" clip-path="url(#p10c1f238fd)" style="fill: #4c72b0; stroke: #ffffff; stroke-linejoin: miter"/>
   </g>
   <g id="patch_27">
    <path d="M 316.190723 273.429934 
L 319.978056 273.429934 
L 319.978056 228.093897 
L 316.190723 228.093897 
z
" clip-path="url(#p10c1f238fd)" style="fill: #4c72b0; stroke: #ffffff; stroke-linejoin: miter"/>
   </g>
   <g id="patch_28">
    <path d="M 319.978056 273.429934 
L 323.765391 273.429934 
L 323.765391 223.3161 
L 319.978056 223.3161 
z
" clip-path="url(#p10c1f238fd)" style="fill: #4c72b0; stroke: #ffffff; stroke-linejoin: miter"/>
   </g>
   <g id="patch_29">
    <path d="M 323.765391 273.429934 
L 327.552725 273.429934 
L 327.552725 228.306249 
L 323.765391 228.306249 
z
" clip-path="url(#p10c1f238fd)" style="fill: #4c72b0; stroke: #ffffff; stroke-linejoin: miter"/>
   </g>
   <g id="patch_30">
    <path d="M 327.552725 273.429934 
L 331.340059 273.429934 
L 331.340059 226.076608 
L 327.552725 226.076608 
z
" clip-path="url(#p10c1f238fd)" style="fill: #4c72b0; stroke: #ffffff; stroke-linejoin: miter"/>
   </g>
   <g id="patch_31">
    <path d="M 331.340059 273.429934 
L 335.127393 273.429934 
L 335.127393 227.775382 
L 331.340059 227.775382 
z
" clip-path="url(#p10c1f238fd)" style="fill: #4c72b0; stroke: #ffffff; stroke-linejoin: miter"/>
   </g>
   <g id="patch_32">
    <path d="M 335.127393 273.429934 
L 338.914727 273.429934 
L 338.914727 226.925995 
L 335.127393 226.925995 
z
" clip-path="url(#p10c1f238fd)" style="fill: #4c72b0; stroke: #ffffff; stroke-linejoin: miter"/>
   </g>
   <g id="patch_33">
    <path d="M 338.914727 273.429934 
L 342.702061 273.429934 
L 342.702061 235.101345 
L 338.914727 235.101345 
z
" clip-path="url(#p10c1f238fd)" style="fill: #4c72b0; stroke: #ffffff; stroke-linejoin: miter"/>
   </g>
   <g id="patch_34">
    <path d="M 342.702061 273.429934 
L 346.489395 273.429934 
L 346.489395 237.330986 
L 342.702061 237.330986 
z
" clip-path="url(#p10c1f238fd)" style="fill: #4c72b0; stroke: #ffffff; stroke-linejoin: miter"/>
   </g>
   <g id="patch_35">
    <path d="M 346.489395 273.429934 
L 350.276729 273.429934 
L 350.276729 240.516187 
L 346.489395 240.516187 
z
" clip-path="url(#p10c1f238fd)" style="fill: #4c72b0; stroke: #ffffff; stroke-linejoin: miter"/>
   </g>
   <g id="patch_36">
    <path d="M 350.276729 273.429934 
L 354.064064 273.429934 
L 354.064064 243.913747 
L 350.276729 243.913747 
z
" clip-path="url(#p10c1f238fd)" style="fill: #4c72b0; stroke: #ffffff; stroke-linejoin: miter"/>
   </g>
   <g id="patch_37">
    <path d="M 354.064064 273.429934 
L 357.851397 273.429934 
L 357.851397 249.222394 
L 354.064064 249.222394 
z
" clip-path="url(#p10c1f238fd)" style="fill: #4c72b0; stroke: #ffffff; stroke-linejoin: miter"/>
   </g>
   <g id="patch_38">
    <path d="M 357.851397 273.429934 
L 361.638732 273.429934 
L 361.638732 249.010067 
L 357.851397 249.010067 
z
" clip-path="url(#p10c1f238fd)" style="fill: #4c72b0; stroke: #ffffff; stroke-linejoin: miter"/>
   </g>
   <g id="patch_39">
    <path d="M 361.638732 273.429934 
L 365.426065 273.429934 
L 365.426065 244.019897 
L 361.638732 244.019897 
z
" clip-path="url(#p10c1f238fd)" style="fill: #4c72b0; stroke: #ffffff; stroke-linejoin: miter"/>
   </g>
   <g id="patch_40">
    <path d="M 365.426065 273.429934 
L 369.2134 273.429934 
L 369.2134 231.172946 
L 365.426065 231.172946 
z
" clip-path="url(#p10c1f238fd)" style="fill: #4c72b0; stroke: #ffffff; stroke-linejoin: miter"/>
   </g>
   <g id="patch_41">
    <path d="M 369.2134 273.429934 
L 373.000733 273.429934 
L 373.000733 218.432103 
L 369.2134 218.432103 
z
" clip-path="url(#p10c1f238fd)" style="fill: #4c72b0; stroke: #ffffff; stroke-linejoin: miter"/>
   </g>
   <g id="patch_42">
    <path d="M 373.000733 273.429934 
L 376.788065 273.429934 
L 376.788065 210.999964 
L 373.000733 210.999964 
z
" clip-path="url(#p10c1f238fd)" style="fill: #4c72b0; stroke: #ffffff; stroke-linejoin: miter"/>
   </g>
   <g id="patch_43">
    <path d="M 376.788065 273.429934 
L 380.575404 273.429934 
L 380.575404 219.706268 
L 376.788065 219.706268 
z
" clip-path="url(#p10c1f238fd)" style="fill: #4c72b0; stroke: #ffffff; stroke-linejoin: miter"/>
   </g>
   <g id="patch_44">
    <path d="M 380.575404 273.429934 
L 384.362736 273.429934 
L 384.362736 232.659341 
L 380.575404 232.659341 
z
" clip-path="url(#p10c1f238fd)" style="fill: #4c72b0; stroke: #ffffff; stroke-linejoin: miter"/>
   </g>
   <g id="patch_45">
    <path d="M 384.362736 273.429934 
L 388.150069 273.429934 
L 388.150069 251.664383 
L 384.362736 251.664383 
z
" clip-path="url(#p10c1f238fd)" style="fill: #4c72b0; stroke: #ffffff; stroke-linejoin: miter"/>
   </g>
   <g id="patch_46">
    <path d="M 388.150069 273.429934 
L 391.937401 273.429934 
L 391.937401 263.237286 
L 388.150069 263.237286 
z
" clip-path="url(#p10c1f238fd)" style="fill: #4c72b0; stroke: #ffffff; stroke-linejoin: miter"/>
   </g>
   <g id="patch_47">
    <path d="M 391.937401 273.429934 
L 395.72474 273.429934 
L 395.72474 269.501523 
L 391.937401 269.501523 
z
" clip-path="url(#p10c1f238fd)" style="fill: #4c72b0; stroke: #ffffff; stroke-linejoin: miter"/>
   </g>
   <g id="patch_48">
    <path d="M 395.72474 273.429934 
L 399.512072 273.429934 
L 399.512072 272.049679 
L 395.72474 272.049679 
z
" clip-path="url(#p10c1f238fd)" style="fill: #4c72b0; stroke: #ffffff; stroke-linejoin: miter"/>
   </g>
   <g id="patch_49">
    <path d="M 399.512072 273.429934 
L 403.299405 273.429934 
L 403.299405 272.68672 
L 399.512072 272.68672 
z
" clip-path="url(#p10c1f238fd)" style="fill: #4c72b0; stroke: #ffffff; stroke-linejoin: miter"/>
   </g>
   <g id="patch_50">
    <path d="M 403.299405 273.429934 
L 407.086737 273.429934 
L 407.086737 273.217587 
L 403.299405 273.217587 
z
" clip-path="url(#p10c1f238fd)" style="fill: #4c72b0; stroke: #ffffff; stroke-linejoin: miter"/>
   </g>
   <g id="patch_51">
    <path d="M 407.086737 273.429934 
L 410.874076 273.429934 
L 410.874076 273.429934 
L 407.086737 273.429934 
z
" clip-path="url(#p10c1f238fd)" style="fill: #4c72b0; stroke: #ffffff; stroke-linejoin: miter"/>
   </g>
   <g id="patch_52">
    <path d="M 410.874076 273.429934 
L 414.661408 273.429934 
L 414.661408 273.32376 
L 410.874076 273.32376 
z
" clip-path="url(#p10c1f238fd)" style="fill: #4c72b0; stroke: #ffffff; stroke-linejoin: miter"/>
   </g>
   <g id="patch_53">
    <path d="M 414.661408 273.429934 
L 418.448741 273.429934 
L 418.448741 273.429934 
L 414.661408 273.429934 
z
" clip-path="url(#p10c1f238fd)" style="fill: #4c72b0; stroke: #ffffff; stroke-linejoin: miter"/>
   </g>
   <g id="patch_54">
    <path d="M 418.448741 273.429934 
L 422.236073 273.429934 
L 422.236073 273.429934 
L 418.448741 273.429934 
z
" clip-path="url(#p10c1f238fd)" style="fill: #4c72b0; stroke: #ffffff; stroke-linejoin: miter"/>
   </g>
   <g id="patch_55">
    <path d="M 422.236073 273.429934 
L 426.023406 273.429934 
L 426.023406 273.32376 
L 422.236073 273.32376 
z
" clip-path="url(#p10c1f238fd)" style="fill: #4c72b0; stroke: #ffffff; stroke-linejoin: miter"/>
   </g>
   <g id="patch_56">
    <path d="M 426.023406 273.429934 
L 429.810744 273.429934 
L 429.810744 273.323761 
L 426.023406 273.323761 
z
" clip-path="url(#p10c1f238fd)" style="fill: #4c72b0; stroke: #ffffff; stroke-linejoin: miter"/>
   </g>
   <g id="line2d_7">
    <path d="M 225.72 273.429934 
L 346.000933 273.341093 
L 348.673848 273.089198 
L 350.0103 272.793737 
L 351.346756 272.27927 
L 352.683209 271.41395 
L 353.351435 270.793149 
L 354.019662 270.008501 
L 354.687891 269.025529 
L 355.356117 267.805078 
L 356.02435 266.303336 
L 356.692576 264.472213 
L 357.360802 262.259798 
L 358.029032 259.611291 
L 358.697258 256.470258 
L 360.033711 248.486385 
L 361.370163 237.892894 
L 362.706619 224.385839 
L 364.043078 207.864542 
L 365.379533 188.522745 
L 367.384212 155.549844 
L 370.725347 99.71185 
L 372.061806 81.551646 
L 372.730035 74.163325 
L 373.398261 68.130045 
L 374.066488 63.589865 
L 374.734714 60.648501 
L 375.40294 59.375321 
L 376.071167 59.800552 
L 376.739393 61.914062 
L 377.407619 65.665851 
L 378.075846 70.967917 
L 378.744084 77.697921 
L 380.080537 94.807627 
L 381.416989 115.526437 
L 386.762812 203.278394 
L 388.099265 220.536201 
L 389.435718 234.797364 
L 390.77217 246.097077 
L 392.108623 254.6973 
L 393.445088 260.993576 
L 394.78154 265.432121 
L 395.449767 267.092277 
L 396.117993 268.447614 
L 396.786219 269.544136 
L 398.122672 271.122051 
L 399.459125 272.102143 
L 400.795589 272.689945 
L 402.132042 273.030444 
L 404.136721 273.280648 
L 407.477853 273.405248 
L 418.837725 273.429921 
L 425.52 273.429934 
L 425.52 273.429934 
" clip-path="url(#p10c1f238fd)" style="fill: none; stroke: #c44e52; stroke-width: 2; stroke-linecap: round"/>
   </g>
   <g id="line2d_8">
    <path d="M 225.72 273.408386 
L 239.752777 273.255786 
L 247.103279 272.971194 
L 252.449102 272.551185 
L 256.45846 272.041485 
L 260.46783 271.291955 
L 263.808961 270.426064 
L 266.481867 269.537449 
L 269.154784 268.443397 
L 271.82769 267.114603 
L 274.500607 265.522799 
L 277.173512 263.64253 
L 279.846421 261.453114 
L 282.519332 258.940841 
L 285.19224 256.101217 
L 287.865149 252.941104 
L 290.53806 249.480593 
L 293.879195 244.786915 
L 297.888562 238.753909 
L 307.243746 224.430123 
L 309.916654 220.718319 
L 312.589565 217.371138 
L 314.594247 215.161622 
L 316.598926 213.253987 
L 318.603608 211.683 
L 320.608296 210.477903 
L 321.944749 209.889316 
L 323.281202 209.478609 
L 324.617657 209.249295 
L 325.95411 209.203331 
L 327.290569 209.341121 
L 328.627025 209.66147 
L 329.963477 210.161652 
L 331.29993 210.837397 
L 333.304612 212.167324 
L 335.309297 213.854066 
L 337.313979 215.866441 
L 339.318661 218.168042 
L 341.991572 221.616223 
L 345.332707 226.389303 
L 350.0103 233.55913 
L 356.692576 243.806795 
L 360.033711 248.572259 
L 363.374851 252.941104 
L 366.04776 256.101217 
L 368.720665 258.940837 
L 371.393579 261.453114 
L 374.066488 263.64253 
L 376.739393 265.522799 
L 379.41231 267.114603 
L 382.085216 268.443397 
L 384.758121 269.537443 
L 387.431039 270.426064 
L 390.77217 271.291955 
L 394.113314 271.935238 
L 398.122672 272.47987 
L 402.800268 272.887925 
L 408.814317 273.179765 
L 417.501272 273.356013 
L 425.52 273.408386 
L 425.52 273.408386 
" clip-path="url(#p10c1f238fd)" style="fill: none; stroke: #55a868; stroke-width: 2; stroke-linecap: round"/>
   </g>
   <g id="patch_57">
    <path d="M 225.72 275.04 
L 425.52 275.04 
" style="fill: none; stroke: #cccccc; stroke-width: 1.25; stroke-linejoin: miter; stroke-linecap: square"/>
   </g>
   <g id="text_5">
    <!-- $N = 10$ -->
    <g style="fill: #1a1a1a" transform="translate(296.37 25.92) scale(0.18 -0.18)">
     <defs>
      <path id="DejaVuSans-31" d="M 794 531 
L 1825 531 
L 1825 4091 
L 703 3866 
L 703 4441 
L 1819 4666 
L 2450 4666 
L 2450 531 
L 3481 531 
L 3481 0 
L 794 0 
L 794 531 
z
" transform="scale(0.015625)"/>
     </defs>
     <use xlink:href="#DejaVuSans-Oblique-4e" transform="translate(0 0.78125)"/>
     <use xlink:href="#DejaVuSans-3d" transform="translate(94.287109 0.78125)"/>
     <use xlink:href="#DejaVuSans-31" transform="translate(197.558594 0.78125)"/>
     <use xlink:href="#DejaVuSans-30" transform="translate(261.181641 0.78125)"/>
    </g>
   </g>
  </g>
  <g id="axes_3"/>
  <g id="axes_4"/>
 </g>
 <defs>
  <clipPath id="pa4a9fa4cb3">
   <rect x="12.96" y="31.92" width="199.8" height="243.12"/>
  </clipPath>
  <clipPath id="p10c1f238fd">
   <rect x="225.72" y="31.92" width="199.8" height="243.12"/>
  </clipPath>
 </defs>
</svg>
