<?xml version="1.0" encoding="utf-8" standalone="no"?>
<!DOCTYPE svg PUBLIC "-//W3C//DTD SVG 1.1//EN"
  "http://www.w3.org/Graphics/SVG/1.1/DTD/svg11.dtd">
<svg xmlns:xlink="http://www.w3.org/1999/xlink" width="864pt" height="288pt" viewBox="0 0 864 288" xmlns="http://www.w3.org/2000/svg" version="1.1">
 <metadata>
  <rdf:RDF xmlns:dc="http://purl.org/dc/elements/1.1/" xmlns:cc="http://creativecommons.org/ns#" xmlns:rdf="http://www.w3.org/1999/02/22-rdf-syntax-ns#">
   <cc:Work>
    <dc:type rdf:resource="http://purl.org/dc/dcmitype/StillImage"/>
    <dc:date>2024-07-03T12:26:16.742881</dc:date>
    <dc:format>image/svg+xml</dc:format>
    <dc:creator>
     <cc:Agent>
      <dc:title>Matplotlib v3.9.0, https://matplotlib.org/</dc:title>
     </cc:Agent>
    </dc:creator>
   </cc:Work>
  </rdf:RDF>
 </metadata>
 <defs>
  <style type="text/css">*{stroke-linejoin: round; stroke-linecap: butt}</style>
 </defs>
 <g id="figure_1">
  <g id="patch_1">
   <path d="M 0 288 
L 864 288 
L 864 0 
L 0 0 
z
" style="fill: #ffffff"/>
  </g>
  <g id="axes_1">
   <g id="patch_2">
    <path d="M 12.96 275.04 
L 212.76 275.04 
L 212.76 31.92 
L 12.96 31.92 
z
" style="fill: #ffffff"/>
   </g>
   <g id="matplotlib.axis_1">
    <g id="xtick_1"/>
    <g id="xtick_2"/>
    <g id="xtick_3"/>
    <g id="xtick_4"/>
    <g id="xtick_5"/>
   </g>
   <g id="matplotlib.axis_2">
    <g id="ytick_1"/>
    <g id="ytick_2"/>
    <g id="ytick_3"/>
    <g id="ytick_4"/>
    <g id="ytick_5"/>
    <g id="ytick_6"/>
    <g id="ytick_7"/>
    <g id="ytick_8"/>
   </g>
   <g id="line2d_1">
    <path d="M 12.96 273.408386 
L 26.992777 273.255786 
L 34.343279 272.971194 
L 39.689102 272.551185 
L 43.69846 272.041485 
L 47.70783 271.291955 
L 51.048961 270.426064 
L 53.721867 269.537449 
L 56.394784 268.443397 
L 59.06769 267.114603 
L 61.740607 265.522799 
L 64.413512 263.64253 
L 67.086421 261.453114 
L 69.759332 258.940841 
L 72.43224 256.101217 
L 75.105149 252.941104 
L 77.77806 249.480593 
L 81.119195 244.786915 
L 85.128562 238.753909 
L 94.483746 224.430123 
L 97.156654 220.718319 
L 99.829565 217.371138 
L 101.834247 215.161622 
L 103.838926 213.253987 
L 105.843608 211.683 
L 107.848296 210.477903 
L 109.184749 209.889316 
L 110.521202 209.478609 
L 111.857657 209.249295 
L 113.19411 209.203331 
L 114.530569 209.341121 
L 115.867025 209.66147 
L 117.203477 210.161652 
L 118.53993 210.837397 
L 120.544612 212.167324 
L 122.549297 213.854066 
L 124.553979 215.866441 
L 126.558661 218.168042 
L 129.231572 221.616223 
L 132.572707 226.389303 
L 137.2503 233.55913 
L 143.932576 243.806795 
L 147.273711 248.572259 
L 150.614851 252.941104 
L 153.28776 256.101217 
L 155.960665 258.940837 
L 158.633579 261.453114 
L 161.306488 263.64253 
L 163.979393 265.522799 
L 166.65231 267.114603 
L 169.325216 268.443397 
L 171.998121 269.537443 
L 174.671039 270.426064 
L 178.01217 271.291955 
L 181.353314 271.935238 
L 185.362672 272.47987 
L 190.040268 272.887925 
L 196.054317 273.179765 
L 204.741272 273.356013 
L 212.76 273.408386 
L 212.76 273.408386 
" clip-path="url(#pb50ecbf733)" style="fill: none; stroke: #55a868; stroke-width: 2; stroke-linecap: round"/>
   </g>
   <g id="line2d_2">
    <path d="M 12.96 273.429934 
L 133.240933 273.341093 
L 135.913848 273.089198 
L 137.2503 272.793737 
L 138.586756 272.27927 
L 139.923209 271.41395 
L 140.591435 270.793149 
L 141.259662 270.008501 
L 141.927891 269.025529 
L 142.596117 267.805078 
L 143.26435 266.303336 
L 143.932576 264.472213 
L 144.600802 262.259798 
L 145.269032 259.611291 
L 145.937258 256.470258 
L 147.273711 248.486385 
L 148.610163 237.892894 
L 149.946619 224.385839 
L 151.283078 207.864542 
L 152.619533 188.522745 
L 154.624212 155.549844 
L 157.965347 99.71185 
L 159.301806 81.551646 
L 159.970035 74.163325 
L 160.638261 68.130045 
L 161.306488 63.589865 
L 161.974714 60.648501 
L 162.64294 59.375321 
L 163.311167 59.800552 
L 163.979393 61.914062 
L 164.647619 65.665851 
L 165.315846 70.967917 
L 165.984084 77.697921 
L 167.320537 94.807627 
L 168.656989 115.526437 
L 174.002812 203.278394 
L 175.339265 220.536201 
L 176.675718 234.797364 
L 178.01217 246.097077 
L 179.348623 254.6973 
L 180.685088 260.993576 
L 182.02154 265.432121 
L 182.689767 267.092277 
L 183.357993 268.447614 
L 184.026219 269.544136 
L 185.362672 271.122051 
L 186.699125 272.102143 
L 188.035589 272.689945 
L 189.372042 273.030444 
L 191.376721 273.280648 
L 194.717853 273.405248 
L 206.077725 273.429921 
L 212.76 273.429934 
L 212.76 273.429934 
" clip-path="url(#pb50ecbf733)" style="fill: none; stroke: #c44e52; stroke-width: 2; stroke-linecap: round"/>
   </g>
   <g id="line2d_3">
    <path d="M 12.96 273.429934 
L 133.240933 273.341093 
L 135.913848 273.089198 
L 137.2503 272.793737 
L 138.586756 272.27927 
L 139.923209 271.41395 
L 140.591435 270.793149 
L 141.259662 270.008501 
L 141.927891 269.025529 
L 142.596117 267.805078 
L 143.26435 266.303336 
L 143.932576 264.472213 
L 144.600802 262.259798 
L 145.269032 259.611291 
L 145.937258 256.470258 
L 147.273711 248.486385 
L 148.610163 237.892894 
L 149.946619 224.385839 
L 151.283078 207.864542 
L 152.619533 188.522745 
L 154.624212 155.549844 
L 157.965347 99.71185 
L 159.301806 81.551646 
L 159.970035 74.163325 
L 160.638261 68.130045 
L 161.306488 63.589865 
L 161.974714 60.648501 
L 162.64294 59.375321 
L 163.311167 59.800552 
L 163.979393 61.914062 
L 164.647619 65.665851 
L 165.315846 70.967917 
L 165.984084 77.697921 
L 167.320537 94.807627 
L 168.656989 115.526437 
L 174.002812 203.278394 
L 175.339265 220.536201 
L 176.675718 234.797364 
L 178.01217 246.097077 
L 179.348623 254.6973 
L 180.685088 260.993576 
L 182.02154 265.432121 
L 182.689767 267.092277 
L 183.357993 268.447614 
L 184.026219 269.544136 
L 185.362672 271.122051 
L 186.699125 272.102143 
L 188.035589 272.689945 
L 189.372042 273.030444 
L 191.376721 273.280648 
L 194.717853 273.405248 
L 206.077725 273.429921 
L 212.76 273.429934 
L 212.76 273.429934 
" clip-path="url(#pb50ecbf733)" style="fill: none; stroke: #c44e52; stroke-width: 2; stroke-linecap: round"/>
   </g>
   <g id="line2d_4">
    <path d="M 12.96 273.408386 
L 26.992777 273.255786 
L 34.343279 272.971194 
L 39.689102 272.551185 
L 43.69846 272.041485 
L 47.70783 271.291955 
L 51.048961 270.426064 
L 53.721867 269.537449 
L 56.394784 268.443397 
L 59.06769 267.114603 
L 61.740607 265.522799 
L 64.413512 263.64253 
L 67.086421 261.453114 
L 69.759332 258.940841 
L 72.43224 256.101217 
L 75.105149 252.941104 
L 77.77806 249.480593 
L 81.119195 244.786915 
L 85.128562 238.753909 
L 94.483746 224.430123 
L 97.156654 220.718319 
L 99.829565 217.371138 
L 101.834247 215.161622 
L 103.838926 213.253987 
L 105.843608 211.683 
L 107.848296 210.477903 
L 109.184749 209.889316 
L 110.521202 209.478609 
L 111.857657 209.249295 
L 113.19411 209.203331 
L 114.530569 209.341121 
L 115.867025 209.66147 
L 117.203477 210.161652 
L 118.53993 210.837397 
L 120.544612 212.167324 
L 122.549297 213.854066 
L 124.553979 215.866441 
L 126.558661 218.168042 
L 129.231572 221.616223 
L 132.572707 226.389303 
L 137.2503 233.55913 
L 143.932576 243.806795 
L 147.273711 248.572259 
L 150.614851 252.941104 
L 153.28776 256.101217 
L 155.960665 258.940837 
L 158.633579 261.453114 
L 161.306488 263.64253 
L 163.979393 265.522799 
L 166.65231 267.114603 
L 169.325216 268.443397 
L 171.998121 269.537443 
L 174.671039 270.426064 
L 178.01217 271.291955 
L 181.353314 271.935238 
L 185.362672 272.47987 
L 190.040268 272.887925 
L 196.054317 273.179765 
L 204.741272 273.356013 
L 212.76 273.408386 
L 212.76 273.408386 
" clip-path="url(#pb50ecbf733)" style="fill: none; stroke: #55a868; stroke-width: 2; stroke-linecap: round"/>
   </g>
   <g id="patch_3">
    <path d="M 12.96 275.04 
L 212.76 275.04 
" style="fill: none; stroke: #cccccc; stroke-width: 1.25; stroke-linejoin: miter; stroke-linecap: square"/>
   </g>
   <g id="text_1">
    <!-- $N = 0$ -->
    <g style="fill: #ffffff" transform="translate(89.28 25.92) scale(0.18 -0.18)">
     <defs>
      <path id="DejaVuSans-Oblique-4e" d="M 1081 4666 
L 1931 4666 
L 3219 666 
L 4000 4666 
L 4616 4666 
L 3706 0 
L 2853 0 
L 1569 4025 
L 788 0 
L 172 0 
L 1081 4666 
z
" transform="scale(0.015625)"/>
      <path id="DejaVuSans-3d" d="M 678 2906 
L 4684 2906 
L 4684 2381 
L 678 2381 
L 678 2906 
z
M 678 1631 
L 4684 1631 
L 4684 1100 
L 678 1100 
L 678 1631 
z
" transform="scale(0.015625)"/>
      <path id="DejaVuSans-30" d="M 2034 4250 
Q 1547 4250 1301 3770 
Q 1056 3291 1056 2328 
Q 1056 1369 1301 889 
Q 1547 409 2034 409 
Q 2525 409 2770 889 
Q 3016 1369 3016 2328 
Q 3016 3291 2770 3770 
Q 2525 4250 2034 4250 
z
M 2034 4750 
Q 2819 4750 3233 4129 
Q 3647 3509 3647 2328 
Q 3647 1150 3233 529 
Q 2819 -91 2034 -91 
Q 1250 -91 836 529 
Q 422 1150 422 2328 
Q 422 3509 836 4129 
Q 1250 4750 2034 4750 
z
" transform="scale(0.015625)"/>
     </defs>
     <use xlink:href="#DejaVuSans-Oblique-4e" transform="translate(0 0.78125)"/>
     <use xlink:href="#DejaVuSans-3d" transform="translate(94.287109 0.78125)"/>
     <use xlink:href="#DejaVuSans-30" transform="translate(197.558594 0.78125)"/>
    </g>
   </g>
   <g id="legend_1">
    <g id="patch_4">
     <path d="M 25.56 126.763125 
L 97.38 126.763125 
Q 100.98 126.763125 100.98 123.163125 
L 100.98 44.52 
Q 100.98 40.92 97.38 40.92 
L 25.56 40.92 
Q 21.96 40.92 21.96 44.52 
L 21.96 123.163125 
Q 21.96 126.763125 25.56 126.763125 
z
" style="fill: #ffffff; opacity: 0.8; stroke: #cccccc; stroke-linejoin: miter"/>
    </g>
    <g id="line2d_5">
     <path d="M 29.16 54.704063 
L 47.16 54.704063 
L 65.16 54.704063 
" style="fill: none; stroke: #55a868; stroke-width: 2; stroke-linecap: round"/>
    </g>
    <g id="text_2">
     <!-- $P$ -->
     <g style="fill: #262626" transform="translate(79.56 61.004063) scale(0.18 -0.18)">
      <defs>
       <path id="DejaVuSans-Oblique-50" d="M 1081 4666 
L 2541 4666 
Q 3178 4666 3512 4369 
Q 3847 4072 3847 3500 
Q 3847 2731 3353 2303 
Q 2859 1875 1966 1875 
L 1172 1875 
L 806 0 
L 172 0 
L 1081 4666 
z
M 1613 4147 
L 1275 2394 
L 2069 2394 
Q 2606 2394 2893 2669 
Q 3181 2944 3181 3456 
Q 3181 3784 2986 3965 
Q 2791 4147 2438 4147 
L 1613 4147 
z
" transform="scale(0.015625)"/>
      </defs>
      <use xlink:href="#DejaVuSans-Oblique-50" transform="translate(0 0.09375)"/>
     </g>
    </g>
    <g id="line2d_6">
     <path d="M 29.16 80.165625 
L 47.16 80.165625 
L 65.16 80.165625 
" style="fill: none; stroke: #c44e52; stroke-width: 2; stroke-linecap: round"/>
    </g>
    <g id="text_3">
     <!-- $Q$ -->
     <g style="fill: #262626" transform="translate(79.56 86.465625) scale(0.18 -0.18)">
      <defs>
       <path id="DejaVuSans-Oblique-51" d="M 2309 -84 
Q 2275 -88 2237 -89 
Q 2200 -91 2125 -91 
Q 1250 -91 756 411 
Q 263 913 263 1797 
Q 263 2319 452 2844 
Q 641 3369 978 3788 
Q 1369 4269 1858 4509 
Q 2347 4750 2938 4750 
Q 3794 4750 4287 4245 
Q 4781 3741 4781 2869 
Q 4781 1928 4265 1147 
Q 3750 366 2919 44 
L 3553 -825 
L 2847 -825 
L 2309 -84 
z
M 2919 4238 
Q 2400 4238 2003 3986 
Q 1606 3734 1313 3219 
Q 1125 2891 1026 2522 
Q 928 2153 928 1778 
Q 928 1128 1239 775 
Q 1550 422 2119 422 
Q 2631 422 3032 676 
Q 3434 931 3719 1434 
Q 3909 1772 4009 2142 
Q 4109 2513 4109 2881 
Q 4109 3528 3796 3883 
Q 3484 4238 2919 4238 
z
" transform="scale(0.015625)"/>
      </defs>
      <use xlink:href="#DejaVuSans-Oblique-51" transform="translate(0 0.78125)"/>
     </g>
    </g>
    <g id="patch_5">
     <path d="M 29.16 115.985625 
L 65.16 115.985625 
L 65.16 103.385625 
L 29.16 103.385625 
z
" style="fill: #4c72b0; stroke: #4c72b0; stroke-linejoin: miter"/>
    </g>
    <g id="text_4">
     <!-- $\tilde{Q}$ -->
     <g style="fill: #262626" transform="translate(79.56 115.985625) scale(0.18 -0.18)">
      <defs>
       <path id="DejaVuSans-303" d="M -1621 4281 
L -1799 4453 
Q -1867 4516 -1919 4545 
Q -1971 4575 -2011 4575 
Q -2130 4575 -2186 4461 
Q -2242 4347 -2249 4091 
L -2639 4091 
Q -2633 4513 -2473 4742 
Q -2314 4972 -2030 4972 
Q -1911 4972 -1811 4928 
Q -1711 4884 -1596 4781 
L -1417 4609 
Q -1349 4547 -1297 4517 
Q -1246 4488 -1205 4488 
Q -1086 4488 -1030 4602 
Q -974 4716 -967 4972 
L -577 4972 
Q -583 4550 -742 4320 
Q -902 4091 -1186 4091 
Q -1305 4091 -1405 4134 
Q -1505 4178 -1621 4281 
z
" transform="scale(0.015625)"/>
      </defs>
      <use xlink:href="#DejaVuSans-303" transform="translate(73.912109 23.3125)"/>
      <use xlink:href="#DejaVuSans-Oblique-51" transform="translate(0 0.515625)"/>
     </g>
    </g>
   </g>
  </g>
  <g id="axes_2">
   <g id="patch_6">
    <path d="M 225.72 275.04 
L 425.52 275.04 
L 425.52 31.92 
L 225.72 31.92 
z
" style="fill: #ffffff"/>
   </g>
   <g id="matplotlib.axis_3">
    <g id="xtick_6"/>
    <g id="xtick_7"/>
    <g id="xtick_8"/>
    <g id="xtick_9"/>
    <g id="xtick_10"/>
   </g>
   <g id="matplotlib.axis_4">
    <g id="ytick_9"/>
    <g id="ytick_10"/>
    <g id="ytick_11"/>
    <g id="ytick_12"/>
    <g id="ytick_13"/>
    <g id="ytick_14"/>
    <g id="ytick_15"/>
    <g id="ytick_16"/>
   </g>
   <g id="patch_7">
    <path d="M 240.444041 273.429934 
L 244.231374 273.429934 
L 244.231374 273.32376 
L 240.444041 273.32376 
z
" clip-path="url(#p209fcd75d0)" style="fill: #4c72b0; stroke: #ffffff; stroke-linejoin: miter"/>
   </g>
   <g id="patch_8">
    <path d="M 244.231374 273.429934 
L 248.018712 273.429934 
L 248.018712 273.217587 
L 244.231374 273.217587 
z
" clip-path="url(#p209fcd75d0)" style="fill: #4c72b0; stroke: #ffffff; stroke-linejoin: miter"/>
   </g>
   <g id="patch_9">
    <path d="M 248.018712 273.429934 
L 251.806045 273.429934 
L 251.806045 273.217587 
L 248.018712 273.217587 
z
" clip-path="url(#p209fcd75d0)" style="fill: #4c72b0; stroke: #ffffff; stroke-linejoin: miter"/>
   </g>
   <g id="patch_10">
    <path d="M 251.806045 273.429934 
L 255.593377 273.429934 
L 255.593377 272.580546 
L 251.806045 272.580546 
z
" clip-path="url(#p209fcd75d0)" style="fill: #4c72b0; stroke: #ffffff; stroke-linejoin: miter"/>
   </g>
   <g id="patch_11">
    <path d="M 255.593377 273.429934 
L 259.38071 273.429934 
L 259.38071 272.899067 
L 255.593377 272.899067 
z
" clip-path="url(#p209fcd75d0)" style="fill: #4c72b0; stroke: #ffffff; stroke-linejoin: miter"/>
   </g>
   <g id="patch_12">
    <path d="M 259.38071 273.429934 
L 263.168048 273.429934 
L 263.168048 271.518815 
L 259.38071 271.518815 
z
" clip-path="url(#p209fcd75d0)" style="fill: #4c72b0; stroke: #ffffff; stroke-linejoin: miter"/>
   </g>
   <g id="patch_13">
    <path d="M 263.168048 273.429934 
L 266.955381 273.429934 
L 266.955381 271.094119 
L 263.168048 271.094119 
z
" clip-path="url(#p209fcd75d0)" style="fill: #4c72b0; stroke: #ffffff; stroke-linejoin: miter"/>
   </g>
   <g id="patch_14">
    <path d="M 266.955381 273.429934 
L 270.742713 273.429934 
L 270.742713 271.306465 
L 266.955381 271.306465 
z
" clip-path="url(#p209fcd75d0)" style="fill: #4c72b0; stroke: #ffffff; stroke-linejoin: miter"/>
   </g>
   <g id="patch_15">
    <path d="M 270.742713 273.429934 
L 274.530046 273.429934 
L 274.530046 268.227436 
L 270.742713 268.227436 
z
" clip-path="url(#p209fcd75d0)" style="fill: #4c72b0; stroke: #ffffff; stroke-linejoin: miter"/>
   </g>
   <g id="patch_16">
    <path d="M 274.530046 273.429934 
L 278.317381 273.429934 
L 278.317381 267.802747 
L 274.530046 267.802747 
z
" clip-path="url(#p209fcd75d0)" style="fill: #4c72b0; stroke: #ffffff; stroke-linejoin: miter"/>
   </g>
   <g id="patch_17">
    <path d="M 278.317381 273.429934 
L 282.104717 273.429934 
L 282.104717 264.936067 
L 278.317381 264.936067 
z
" clip-path="url(#p209fcd75d0)" style="fill: #4c72b0; stroke: #ffffff; stroke-linejoin: miter"/>
   </g>
   <g id="patch_18">
    <path d="M 282.104717 273.429934 
L 285.892049 273.429934 
L 285.892049 260.476777 
L 282.104717 260.476777 
z
" clip-path="url(#p209fcd75d0)" style="fill: #4c72b0; stroke: #ffffff; stroke-linejoin: miter"/>
   </g>
   <g id="patch_19">
    <path d="M 285.892049 273.429934 
L 289.679385 273.429934 
L 289.679385 259.30888 
L 285.892049 259.30888 
z
" clip-path="url(#p209fcd75d0)" style="fill: #4c72b0; stroke: #ffffff; stroke-linejoin: miter"/>
   </g>
   <g id="patch_20">
    <path d="M 289.679385 273.429934 
L 293.466717 273.429934 
L 293.466717 256.54836 
L 289.679385 256.54836 
z
" clip-path="url(#p209fcd75d0)" style="fill: #4c72b0; stroke: #ffffff; stroke-linejoin: miter"/>
   </g>
   <g id="patch_21">
    <path d="M 293.466717 273.429934 
L 297.254053 273.429934 
L 297.254053 251.6644 
L 293.466717 251.6644 
z
" clip-path="url(#p209fcd75d0)" style="fill: #4c72b0; stroke: #ffffff; stroke-linejoin: miter"/>
   </g>
   <g id="patch_22">
    <path d="M 297.254053 273.429934 
L 301.041387 273.429934 
L 301.041387 242.745828 
L 297.254053 242.745828 
z
" clip-path="url(#p209fcd75d0)" style="fill: #4c72b0; stroke: #ffffff; stroke-linejoin: miter"/>
   </g>
   <g id="patch_23">
    <path d="M 301.041387 273.429934 
L 304.828721 273.429934 
L 304.828721 238.923586 
L 301.041387 238.923586 
z
" clip-path="url(#p209fcd75d0)" style="fill: #4c72b0; stroke: #ffffff; stroke-linejoin: miter"/>
   </g>
   <g id="patch_24">
    <path d="M 304.828721 273.429934 
L 308.616055 273.429934 
L 308.616055 237.755679 
L 304.828721 237.755679 
z
" clip-path="url(#p209fcd75d0)" style="fill: #4c72b0; stroke: #ffffff; stroke-linejoin: miter"/>
   </g>
   <g id="patch_25">
    <path d="M 308.616055 273.429934 
L 312.403389 273.429934 
L 312.403389 234.570478 
L 308.616055 234.570478 
z
" clip-path="url(#p209fcd75d0)" style="fill: #4c72b0; stroke: #ffffff; stroke-linejoin: miter"/>
   </g>
   <g id="patch_26">
    <path d="M 312.403389 273.429934 
L 316.190723 273.429934 
L 316.190723 232.44701 
L 312.403389 232.44701 
z
" clip-path="url(#p209fcd75d0)" style="fill: #4c72b0; stroke: #ffffff; stroke-linejoin: miter"/>
   </g>
   <g id="patch_27">
    <path d="M 316.190723 273.429934 
L 319.978056 273.429934 
L 319.978056 228.093897 
L 316.190723 228.093897 
z
" clip-path="url(#p209fcd75d0)" style="fill: #4c72b0; stroke: #ffffff; stroke-linejoin: miter"/>
   </g>
   <g id="patch_28">
    <path d="M 319.978056 273.429934 
L 323.765391 273.429934 
L 323.765391 223.3161 
L 319.978056 223.3161 
z
" clip-path="url(#p209fcd75d0)" style="fill: #4c72b0; stroke: #ffffff; stroke-linejoin: miter"/>
   </g>
   <g id="patch_29">
    <path d="M 323.765391 273.429934 
L 327.552725 273.429934 
L 327.552725 228.306249 
L 323.765391 228.306249 
z
" clip-path="url(#p209fcd75d0)" style="fill: #4c72b0; stroke: #ffffff; stroke-linejoin: miter"/>
   </g>
   <g id="patch_30">
    <path d="M 327.552725 273.429934 
L 331.340059 273.429934 
L 331.340059 226.076608 
L 327.552725 226.076608 
z
" clip-path="url(#p209fcd75d0)" style="fill: #4c72b0; stroke: #ffffff; stroke-linejoin: miter"/>
   </g>
   <g id="patch_31">
    <path d="M 331.340059 273.429934 
L 335.127393 273.429934 
L 335.127393 227.775382 
L 331.340059 227.775382 
z
" clip-path="url(#p209fcd75d0)" style="fill: #4c72b0; stroke: #ffffff; stroke-linejoin: miter"/>
   </g>
   <g id="patch_32">
    <path d="M 335.127393 273.429934 
L 338.914727 273.429934 
L 338.914727 226.925995 
L 335.127393 226.925995 
z
" clip-path="url(#p209fcd75d0)" style="fill: #4c72b0; stroke: #ffffff; stroke-linejoin: miter"/>
   </g>
   <g id="patch_33">
    <path d="M 338.914727 273.429934 
L 342.702061 273.429934 
L 342.702061 235.101345 
L 338.914727 235.101345 
z
" clip-path="url(#p209fcd75d0)" style="fill: #4c72b0; stroke: #ffffff; stroke-linejoin: miter"/>
   </g>
   <g id="patch_34">
    <path d="M 342.702061 273.429934 
L 346.489395 273.429934 
L 346.489395 237.330986 
L 342.702061 237.330986 
z
" clip-path="url(#p209fcd75d0)" style="fill: #4c72b0; stroke: #ffffff; stroke-linejoin: miter"/>
   </g>
   <g id="patch_35">
    <path d="M 346.489395 273.429934 
L 350.276729 273.429934 
L 350.276729 240.516187 
L 346.489395 240.516187 
z
" clip-path="url(#p209fcd75d0)" style="fill: #4c72b0; stroke: #ffffff; stroke-linejoin: miter"/>
   </g>
   <g id="patch_36">
    <path d="M 350.276729 273.429934 
L 354.064064 273.429934 
L 354.064064 243.913747 
L 350.276729 243.913747 
z
" clip-path="url(#p209fcd75d0)" style="fill: #4c72b0; stroke: #ffffff; stroke-linejoin: miter"/>
   </g>
   <g id="patch_37">
    <path d="M 354.064064 273.429934 
L 357.851397 273.429934 
L 357.851397 249.222394 
L 354.064064 249.222394 
z
" clip-path="url(#p209fcd75d0)" style="fill: #4c72b0; stroke: #ffffff; stroke-linejoin: miter"/>
   </g>
   <g id="patch_38">
    <path d="M 357.851397 273.429934 
L 361.638732 273.429934 
L 361.638732 249.010067 
L 357.851397 249.010067 
z
" clip-path="url(#p209fcd75d0)" style="fill: #4c72b0; stroke: #ffffff; stroke-linejoin: miter"/>
   </g>
   <g id="patch_39">
    <path d="M 361.638732 273.429934 
L 365.426065 273.429934 
L 365.426065 244.019897 
L 361.638732 244.019897 
z
" clip-path="url(#p209fcd75d0)" style="fill: #4c72b0; stroke: #ffffff; stroke-linejoin: miter"/>
   </g>
   <g id="patch_40">
    <path d="M 365.426065 273.429934 
L 369.2134 273.429934 
L 369.2134 231.172946 
L 365.426065 231.172946 
z
" clip-path="url(#p209fcd75d0)" style="fill: #4c72b0; stroke: #ffffff; stroke-linejoin: miter"/>
   </g>
   <g id="patch_41">
    <path d="M 369.2134 273.429934 
L 373.000733 273.429934 
L 373.000733 218.432103 
L 369.2134 218.432103 
z
" clip-path="url(#p209fcd75d0)" style="fill: #4c72b0; stroke: #ffffff; stroke-linejoin: miter"/>
   </g>
   <g id="patch_42">
    <path d="M 373.000733 273.429934 
L 376.788065 273.429934 
L 376.788065 210.999964 
L 373.000733 210.999964 
z
" clip-path="url(#p209fcd75d0)" style="fill: #4c72b0; stroke: #ffffff; stroke-linejoin: miter"/>
   </g>
   <g id="patch_43">
    <path d="M 376.788065 273.429934 
L 380.575404 273.429934 
L 380.575404 219.706268 
L 376.788065 219.706268 
z
" clip-path="url(#p209fcd75d0)" style="fill: #4c72b0; stroke: #ffffff; stroke-linejoin: miter"/>
   </g>
   <g id="patch_44">
    <path d="M 380.575404 273.429934 
L 384.362736 273.429934 
L 384.362736 232.659341 
L 380.575404 232.659341 
z
" clip-path="url(#p209fcd75d0)" style="fill: #4c72b0; stroke: #ffffff; stroke-linejoin: miter"/>
   </g>
   <g id="patch_45">
    <path d="M 384.362736 273.429934 
L 388.150069 273.429934 
L 388.150069 251.664383 
L 384.362736 251.664383 
z
" clip-path="url(#p209fcd75d0)" style="fill: #4c72b0; stroke: #ffffff; stroke-linejoin: miter"/>
   </g>
   <g id="patch_46">
    <path d="M 388.150069 273.429934 
L 391.937401 273.429934 
L 391.937401 263.237286 
L 388.150069 263.237286 
z
" clip-path="url(#p209fcd75d0)" style="fill: #4c72b0; stroke: #ffffff; stroke-linejoin: miter"/>
   </g>
   <g id="patch_47">
    <path d="M 391.937401 273.429934 
L 395.72474 273.429934 
L 395.72474 269.501523 
L 391.937401 269.501523 
z
" clip-path="url(#p209fcd75d0)" style="fill: #4c72b0; stroke: #ffffff; stroke-linejoin: miter"/>
   </g>
   <g id="patch_48">
    <path d="M 395.72474 273.429934 
L 399.512072 273.429934 
L 399.512072 272.049679 
L 395.72474 272.049679 
z
" clip-path="url(#p209fcd75d0)" style="fill: #4c72b0; stroke: #ffffff; stroke-linejoin: miter"/>
   </g>
   <g id="patch_49">
    <path d="M 399.512072 273.429934 
L 403.299405 273.429934 
L 403.299405 272.68672 
L 399.512072 272.68672 
z
" clip-path="url(#p209fcd75d0)" style="fill: #4c72b0; stroke: #ffffff; stroke-linejoin: miter"/>
   </g>
   <g id="patch_50">
    <path d="M 403.299405 273.429934 
L 407.086737 273.429934 
L 407.086737 273.217587 
L 403.299405 273.217587 
z
" clip-path="url(#p209fcd75d0)" style="fill: #4c72b0; stroke: #ffffff; stroke-linejoin: miter"/>
   </g>
   <g id="patch_51">
    <path d="M 407.086737 273.429934 
L 410.874076 273.429934 
L 410.874076 273.429934 
L 407.086737 273.429934 
z
" clip-path="url(#p209fcd75d0)" style="fill: #4c72b0; stroke: #ffffff; stroke-linejoin: miter"/>
   </g>
   <g id="patch_52">
    <path d="M 410.874076 273.429934 
L 414.661408 273.429934 
L 414.661408 273.32376 
L 410.874076 273.32376 
z
" clip-path="url(#p209fcd75d0)" style="fill: #4c72b0; stroke: #ffffff; stroke-linejoin: miter"/>
   </g>
   <g id="patch_53">
    <path d="M 414.661408 273.429934 
L 418.448741 273.429934 
L 418.448741 273.429934 
L 414.661408 273.429934 
z
" clip-path="url(#p209fcd75d0)" style="fill: #4c72b0; stroke: #ffffff; stroke-linejoin: miter"/>
   </g>
   <g id="patch_54">
    <path d="M 418.448741 273.429934 
L 422.236073 273.429934 
L 422.236073 273.429934 
L 418.448741 273.429934 
z
" clip-path="url(#p209fcd75d0)" style="fill: #4c72b0; stroke: #ffffff; stroke-linejoin: miter"/>
   </g>
   <g id="patch_55">
    <path d="M 422.236073 273.429934 
L 426.023406 273.429934 
L 426.023406 273.32376 
L 422.236073 273.32376 
z
" clip-path="url(#p209fcd75d0)" style="fill: #4c72b0; stroke: #ffffff; stroke-linejoin: miter"/>
   </g>
   <g id="patch_56">
    <path d="M 426.023406 273.429934 
L 429.810744 273.429934 
L 429.810744 273.323761 
L 426.023406 273.323761 
z
" clip-path="url(#p209fcd75d0)" style="fill: #4c72b0; stroke: #ffffff; stroke-linejoin: miter"/>
   </g>
   <g id="line2d_7">
    <path d="M 225.72 273.429934 
L 346.000933 273.341093 
L 348.673848 273.089198 
L 350.0103 272.793737 
L 351.346756 272.27927 
L 352.683209 271.41395 
L 353.351435 270.793149 
L 354.019662 270.008501 
L 354.687891 269.025529 
L 355.356117 267.805078 
L 356.02435 266.303336 
L 356.692576 264.472213 
L 357.360802 262.259798 
L 358.029032 259.611291 
L 358.697258 256.470258 
L 360.033711 248.486385 
L 361.370163 237.892894 
L 362.706619 224.385839 
L 364.043078 207.864542 
L 365.379533 188.522745 
L 367.384212 155.549844 
L 370.725347 99.71185 
L 372.061806 81.551646 
L 372.730035 74.163325 
L 373.398261 68.130045 
L 374.066488 63.589865 
L 374.734714 60.648501 
L 375.40294 59.375321 
L 376.071167 59.800552 
L 376.739393 61.914062 
L 377.407619 65.665851 
L 378.075846 70.967917 
L 378.744084 77.697921 
L 380.080537 94.807627 
L 381.416989 115.526437 
L 386.762812 203.278394 
L 388.099265 220.536201 
L 389.435718 234.797364 
L 390.77217 246.097077 
L 392.108623 254.6973 
L 393.445088 260.993576 
L 394.78154 265.432121 
L 395.449767 267.092277 
L 396.117993 268.447614 
L 396.786219 269.544136 
L 398.122672 271.122051 
L 399.459125 272.102143 
L 400.795589 272.689945 
L 402.132042 273.030444 
L 404.136721 273.280648 
L 407.477853 273.405248 
L 418.837725 273.429921 
L 425.52 273.429934 
L 425.52 273.429934 
" clip-path="url(#p209fcd75d0)" style="fill: none; stroke: #c44e52; stroke-width: 2; stroke-linecap: round"/>
   </g>
   <g id="line2d_8">
    <path d="M 225.72 273.408386 
L 239.752777 273.255786 
L 247.103279 272.971194 
L 252.449102 272.551185 
L 256.45846 272.041485 
L 260.46783 271.291955 
L 263.808961 270.426064 
L 266.481867 269.537449 
L 269.154784 268.443397 
L 271.82769 267.114603 
L 274.500607 265.522799 
L 277.173512 263.64253 
L 279.846421 261.453114 
L 282.519332 258.940841 
L 285.19224 256.101217 
L 287.865149 252.941104 
L 290.53806 249.480593 
L 293.879195 244.786915 
L 297.888562 238.753909 
L 307.243746 224.430123 
L 309.916654 220.718319 
L 312.589565 217.371138 
L 314.594247 215.161622 
L 316.598926 213.253987 
L 318.603608 211.683 
L 320.608296 210.477903 
L 321.944749 209.889316 
L 323.281202 209.478609 
L 324.617657 209.249295 
L 325.95411 209.203331 
L 327.290569 209.341121 
L 328.627025 209.66147 
L 329.963477 210.161652 
L 331.29993 210.837397 
L 333.304612 212.167324 
L 335.309297 213.854066 
L 337.313979 215.866441 
L 339.318661 218.168042 
L 341.991572 221.616223 
L 345.332707 226.389303 
L 350.0103 233.55913 
L 356.692576 243.806795 
L 360.033711 248.572259 
L 363.374851 252.941104 
L 366.04776 256.101217 
L 368.720665 258.940837 
L 371.393579 261.453114 
L 374.066488 263.64253 
L 376.739393 265.522799 
L 379.41231 267.114603 
L 382.085216 268.443397 
L 384.758121 269.537443 
L 387.431039 270.426064 
L 390.77217 271.291955 
L 394.113314 271.935238 
L 398.122672 272.47987 
L 402.800268 272.887925 
L 408.814317 273.179765 
L 417.501272 273.356013 
L 425.52 273.408386 
L 425.52 273.408386 
" clip-path="url(#p209fcd75d0)" style="fill: none; stroke: #55a868; stroke-width: 2; stroke-linecap: round"/>
   </g>
   <g id="patch_57">
    <path d="M 225.72 275.04 
L 425.52 275.04 
" style="fill: none; stroke: #cccccc; stroke-width: 1.25; stroke-linejoin: miter; stroke-linecap: square"/>
   </g>
   <g id="text_5">
    <!-- $N = 10$ -->
    <g style="fill: #1a1a1a" transform="translate(296.37 25.92) scale(0.18 -0.18)">
     <defs>
      <path id="DejaVuSans-31" d="M 794 531 
L 1825 531 
L 1825 4091 
L 703 3866 
L 703 4441 
L 1819 4666 
L 2450 4666 
L 2450 531 
L 3481 531 
L 3481 0 
L 794 0 
L 794 531 
z
" transform="scale(0.015625)"/>
     </defs>
     <use xlink:href="#DejaVuSans-Oblique-4e" transform="translate(0 0.78125)"/>
     <use xlink:href="#DejaVuSans-3d" transform="translate(94.287109 0.78125)"/>
     <use xlink:href="#DejaVuSans-31" transform="translate(197.558594 0.78125)"/>
     <use xlink:href="#DejaVuSans-30" transform="translate(261.181641 0.78125)"/>
    </g>
   </g>
  </g>
  <g id="axes_3">
   <g id="patch_58">
    <path d="M 438.48 275.04 
L 638.28 275.04 
L 638.28 31.92 
L 438.48 31.92 
z
" style="fill: #ffffff"/>
   </g>
   <g id="matplotlib.axis_5">
    <g id="xtick_11"/>
    <g id="xtick_12"/>
    <g id="xtick_13"/>
    <g id="xtick_14"/>
    <g id="xtick_15"/>
   </g>
   <g id="matplotlib.axis_6">
    <g id="ytick_17"/>
    <g id="ytick_18"/>
    <g id="ytick_19"/>
    <g id="ytick_20"/>
    <g id="ytick_21"/>
    <g id="ytick_22"/>
    <g id="ytick_23"/>
    <g id="ytick_24"/>
   </g>
   <g id="patch_59">
    <path d="M 458.945565 273.429934 
L 462.235857 273.429934 
L 462.235857 273.307722 
L 458.945565 273.307722 
z
" clip-path="url(#p7a33b679fc)" style="fill: #4c72b0; stroke: #ffffff; stroke-linejoin: miter"/>
   </g>
   <g id="patch_60">
    <path d="M 462.235857 273.429934 
L 465.526149 273.429934 
L 465.526149 273.429934 
L 462.235857 273.429934 
z
" clip-path="url(#p7a33b679fc)" style="fill: #4c72b0; stroke: #ffffff; stroke-linejoin: miter"/>
   </g>
   <g id="patch_61">
    <path d="M 465.526149 273.429934 
L 468.816441 273.429934 
L 468.816441 273.185509 
L 465.526149 273.185509 
z
" clip-path="url(#p7a33b679fc)" style="fill: #4c72b0; stroke: #ffffff; stroke-linejoin: miter"/>
   </g>
   <g id="patch_62">
    <path d="M 468.816441 273.429934 
L 472.106728 273.429934 
L 472.106728 273.063296 
L 468.816441 273.063296 
z
" clip-path="url(#p7a33b679fc)" style="fill: #4c72b0; stroke: #ffffff; stroke-linejoin: miter"/>
   </g>
   <g id="patch_63">
    <path d="M 472.106728 273.429934 
L 475.39702 273.429934 
L 475.39702 273.429934 
L 472.106728 273.429934 
z
" clip-path="url(#p7a33b679fc)" style="fill: #4c72b0; stroke: #ffffff; stroke-linejoin: miter"/>
   </g>
   <g id="patch_64">
    <path d="M 475.39702 273.429934 
L 478.687312 273.429934 
L 478.687312 272.818872 
L 475.39702 272.818872 
z
" clip-path="url(#p7a33b679fc)" style="fill: #4c72b0; stroke: #ffffff; stroke-linejoin: miter"/>
   </g>
   <g id="patch_65">
    <path d="M 478.687312 273.429934 
L 481.977604 273.429934 
L 481.977604 272.207811 
L 478.687312 272.207811 
z
" clip-path="url(#p7a33b679fc)" style="fill: #4c72b0; stroke: #ffffff; stroke-linejoin: miter"/>
   </g>
   <g id="patch_66">
    <path d="M 481.977604 273.429934 
L 485.267896 273.429934 
L 485.267896 272.941085 
L 481.977604 272.941085 
z
" clip-path="url(#p7a33b679fc)" style="fill: #4c72b0; stroke: #ffffff; stroke-linejoin: miter"/>
   </g>
   <g id="patch_67">
    <path d="M 485.267896 273.429934 
L 488.558186 273.429934 
L 488.558186 272.20781 
L 485.267896 272.20781 
z
" clip-path="url(#p7a33b679fc)" style="fill: #4c72b0; stroke: #ffffff; stroke-linejoin: miter"/>
   </g>
   <g id="patch_68">
    <path d="M 488.558186 273.429934 
L 491.848478 273.429934 
L 491.848478 272.207811 
L 488.558186 272.207811 
z
" clip-path="url(#p7a33b679fc)" style="fill: #4c72b0; stroke: #ffffff; stroke-linejoin: miter"/>
   </g>
   <g id="patch_69">
    <path d="M 491.848478 273.429934 
L 495.138767 273.429934 
L 495.138767 271.718961 
L 491.848478 271.718961 
z
" clip-path="url(#p7a33b679fc)" style="fill: #4c72b0; stroke: #ffffff; stroke-linejoin: miter"/>
   </g>
   <g id="patch_70">
    <path d="M 495.138767 273.429934 
L 498.429059 273.429934 
L 498.429059 269.152505 
L 495.138767 269.152505 
z
" clip-path="url(#p7a33b679fc)" style="fill: #4c72b0; stroke: #ffffff; stroke-linejoin: miter"/>
   </g>
   <g id="patch_71">
    <path d="M 498.429059 273.429934 
L 501.719351 273.429934 
L 501.719351 269.519142 
L 498.429059 269.519142 
z
" clip-path="url(#p7a33b679fc)" style="fill: #4c72b0; stroke: #ffffff; stroke-linejoin: miter"/>
   </g>
   <g id="patch_72">
    <path d="M 501.719351 273.429934 
L 505.009644 273.429934 
L 505.009644 267.319321 
L 501.719351 267.319321 
z
" clip-path="url(#p7a33b679fc)" style="fill: #4c72b0; stroke: #ffffff; stroke-linejoin: miter"/>
   </g>
   <g id="patch_73">
    <path d="M 505.009644 273.429934 
L 508.299933 273.429934 
L 508.299933 269.396926 
L 505.009644 269.396926 
z
" clip-path="url(#p7a33b679fc)" style="fill: #4c72b0; stroke: #ffffff; stroke-linejoin: miter"/>
   </g>
   <g id="patch_74">
    <path d="M 508.299933 273.429934 
L 511.590225 273.429934 
L 511.590225 266.830472 
L 508.299933 266.830472 
z
" clip-path="url(#p7a33b679fc)" style="fill: #4c72b0; stroke: #ffffff; stroke-linejoin: miter"/>
   </g>
   <g id="patch_75">
    <path d="M 511.590225 273.429934 
L 514.880516 273.429934 
L 514.880516 265.241709 
L 511.590225 265.241709 
z
" clip-path="url(#p7a33b679fc)" style="fill: #4c72b0; stroke: #ffffff; stroke-linejoin: miter"/>
   </g>
   <g id="patch_76">
    <path d="M 514.880516 273.429934 
L 518.170806 273.429934 
L 518.170806 266.586044 
L 514.880516 266.586044 
z
" clip-path="url(#p7a33b679fc)" style="fill: #4c72b0; stroke: #ffffff; stroke-linejoin: miter"/>
   </g>
   <g id="patch_77">
    <path d="M 518.170806 273.429934 
L 521.461099 273.429934 
L 521.461099 263.775165 
L 518.170806 263.775165 
z
" clip-path="url(#p7a33b679fc)" style="fill: #4c72b0; stroke: #ffffff; stroke-linejoin: miter"/>
   </g>
   <g id="patch_78">
    <path d="M 521.461099 273.429934 
L 524.751389 273.429934 
L 524.751389 262.919675 
L 521.461099 262.919675 
z
" clip-path="url(#p7a33b679fc)" style="fill: #4c72b0; stroke: #ffffff; stroke-linejoin: miter"/>
   </g>
   <g id="patch_79">
    <path d="M 524.751389 273.429934 
L 528.041681 273.429934 
L 528.041681 261.697554 
L 524.751389 261.697554 
z
" clip-path="url(#p7a33b679fc)" style="fill: #4c72b0; stroke: #ffffff; stroke-linejoin: miter"/>
   </g>
   <g id="patch_80">
    <path d="M 528.041681 273.429934 
L 531.331972 273.429934 
L 531.331972 259.986582 
L 528.041681 259.986582 
z
" clip-path="url(#p7a33b679fc)" style="fill: #4c72b0; stroke: #ffffff; stroke-linejoin: miter"/>
   </g>
   <g id="patch_81">
    <path d="M 531.331972 273.429934 
L 534.622263 273.429934 
L 534.622263 263.408525 
L 531.331972 263.408525 
z
" clip-path="url(#p7a33b679fc)" style="fill: #4c72b0; stroke: #ffffff; stroke-linejoin: miter"/>
   </g>
   <g id="patch_82">
    <path d="M 534.622263 273.429934 
L 537.912555 273.429934 
L 537.912555 260.353219 
L 534.622263 260.353219 
z
" clip-path="url(#p7a33b679fc)" style="fill: #4c72b0; stroke: #ffffff; stroke-linejoin: miter"/>
   </g>
   <g id="patch_83">
    <path d="M 537.912555 273.429934 
L 541.202846 273.429934 
L 541.202846 262.919677 
L 537.912555 262.919677 
z
" clip-path="url(#p7a33b679fc)" style="fill: #4c72b0; stroke: #ffffff; stroke-linejoin: miter"/>
   </g>
   <g id="patch_84">
    <path d="M 541.202846 273.429934 
L 544.493137 273.429934 
L 544.493137 260.231005 
L 541.202846 260.231005 
z
" clip-path="url(#p7a33b679fc)" style="fill: #4c72b0; stroke: #ffffff; stroke-linejoin: miter"/>
   </g>
   <g id="patch_85">
    <path d="M 544.493137 273.429934 
L 547.783428 273.429934 
L 547.783428 260.597642 
L 544.493137 260.597642 
z
" clip-path="url(#p7a33b679fc)" style="fill: #4c72b0; stroke: #ffffff; stroke-linejoin: miter"/>
   </g>
   <g id="patch_86">
    <path d="M 547.783428 273.429934 
L 551.073719 273.429934 
L 551.073719 262.797465 
L 547.783428 262.797465 
z
" clip-path="url(#p7a33b679fc)" style="fill: #4c72b0; stroke: #ffffff; stroke-linejoin: miter"/>
   </g>
   <g id="patch_87">
    <path d="M 551.073719 273.429934 
L 554.36401 273.429934 
L 554.36401 262.67525 
L 551.073719 262.67525 
z
" clip-path="url(#p7a33b679fc)" style="fill: #4c72b0; stroke: #ffffff; stroke-linejoin: miter"/>
   </g>
   <g id="patch_88">
    <path d="M 554.36401 273.429934 
L 557.654302 273.429934 
L 557.654302 261.208708 
L 554.36401 261.208708 
z
" clip-path="url(#p7a33b679fc)" style="fill: #4c72b0; stroke: #ffffff; stroke-linejoin: miter"/>
   </g>
   <g id="patch_89">
    <path d="M 557.654302 273.429934 
L 560.944593 273.429934 
L 560.944593 264.141798 
L 557.654302 264.141798 
z
" clip-path="url(#p7a33b679fc)" style="fill: #4c72b0; stroke: #ffffff; stroke-linejoin: miter"/>
   </g>
   <g id="patch_90">
    <path d="M 560.944593 273.429934 
L 564.234885 273.429934 
L 564.234885 263.530741 
L 560.944593 263.530741 
z
" clip-path="url(#p7a33b679fc)" style="fill: #4c72b0; stroke: #ffffff; stroke-linejoin: miter"/>
   </g>
   <g id="patch_91">
    <path d="M 564.234885 273.429934 
L 567.525174 273.429934 
L 567.525174 263.041882 
L 564.234885 263.041882 
z
" clip-path="url(#p7a33b679fc)" style="fill: #4c72b0; stroke: #ffffff; stroke-linejoin: miter"/>
   </g>
   <g id="patch_92">
    <path d="M 567.525174 273.429934 
L 570.815467 273.429934 
L 570.815467 261.33092 
L 567.525174 261.33092 
z
" clip-path="url(#p7a33b679fc)" style="fill: #4c72b0; stroke: #ffffff; stroke-linejoin: miter"/>
   </g>
   <g id="patch_93">
    <path d="M 570.815467 273.429934 
L 574.105759 273.429934 
L 574.105759 251.798364 
L 570.815467 251.798364 
z
" clip-path="url(#p7a33b679fc)" style="fill: #4c72b0; stroke: #ffffff; stroke-linejoin: miter"/>
   </g>
   <g id="patch_94">
    <path d="M 574.105759 273.429934 
L 577.396048 273.429934 
L 577.396048 230.044543 
L 574.105759 230.044543 
z
" clip-path="url(#p7a33b679fc)" style="fill: #4c72b0; stroke: #ffffff; stroke-linejoin: miter"/>
   </g>
   <g id="patch_95">
    <path d="M 577.396048 273.429934 
L 580.68634 273.429934 
L 580.68634 186.170381 
L 577.396048 186.170381 
z
" clip-path="url(#p7a33b679fc)" style="fill: #4c72b0; stroke: #ffffff; stroke-linejoin: miter"/>
   </g>
   <g id="patch_96">
    <path d="M 580.68634 273.429934 
L 583.976632 273.429934 
L 583.976632 140.585209 
L 580.68634 140.585209 
z
" clip-path="url(#p7a33b679fc)" style="fill: #4c72b0; stroke: #ffffff; stroke-linejoin: miter"/>
   </g>
   <g id="patch_97">
    <path d="M 583.976632 273.429934 
L 587.266925 273.429934 
L 587.266925 109.176658 
L 583.976632 109.176658 
z
" clip-path="url(#p7a33b679fc)" style="fill: #4c72b0; stroke: #ffffff; stroke-linejoin: miter"/>
   </g>
   <g id="patch_98">
    <path d="M 587.266925 273.429934 
L 590.557217 273.429934 
L 590.557217 100.988437 
L 587.266925 100.988437 
z
" clip-path="url(#p7a33b679fc)" style="fill: #4c72b0; stroke: #ffffff; stroke-linejoin: miter"/>
   </g>
   <g id="patch_99">
    <path d="M 590.557217 273.429934 
L 593.847503 273.429934 
L 593.847503 128.974783 
L 590.557217 128.974783 
z
" clip-path="url(#p7a33b679fc)" style="fill: #4c72b0; stroke: #ffffff; stroke-linejoin: miter"/>
   </g>
   <g id="patch_100">
    <path d="M 593.847503 273.429934 
L 597.137795 273.429934 
L 597.137795 166.494208 
L 593.847503 166.494208 
z
" clip-path="url(#p7a33b679fc)" style="fill: #4c72b0; stroke: #ffffff; stroke-linejoin: miter"/>
   </g>
   <g id="patch_101">
    <path d="M 597.137795 273.429934 
L 600.428087 273.429934 
L 600.428087 206.579828 
L 597.137795 206.579828 
z
" clip-path="url(#p7a33b679fc)" style="fill: #4c72b0; stroke: #ffffff; stroke-linejoin: miter"/>
   </g>
   <g id="patch_102">
    <path d="M 600.428087 273.429934 
L 603.71838 273.429934 
L 603.71838 242.510232 
L 600.428087 242.510232 
z
" clip-path="url(#p7a33b679fc)" style="fill: #4c72b0; stroke: #ffffff; stroke-linejoin: miter"/>
   </g>
   <g id="patch_103">
    <path d="M 603.71838 273.429934 
L 607.008672 273.429934 
L 607.008672 256.931279 
L 603.71838 256.931279 
z
" clip-path="url(#p7a33b679fc)" style="fill: #4c72b0; stroke: #ffffff; stroke-linejoin: miter"/>
   </g>
   <g id="patch_104">
    <path d="M 607.008672 273.429934 
L 610.298964 273.429934 
L 610.298964 268.663656 
L 607.008672 268.663656 
z
" clip-path="url(#p7a33b679fc)" style="fill: #4c72b0; stroke: #ffffff; stroke-linejoin: miter"/>
   </g>
   <g id="patch_105">
    <path d="M 610.298964 273.429934 
L 613.58925 273.429934 
L 613.58925 271.474534 
L 610.298964 271.474534 
z
" clip-path="url(#p7a33b679fc)" style="fill: #4c72b0; stroke: #ffffff; stroke-linejoin: miter"/>
   </g>
   <g id="patch_106">
    <path d="M 613.58925 273.429934 
L 616.879542 273.429934 
L 616.879542 273.185509 
L 613.58925 273.185509 
z
" clip-path="url(#p7a33b679fc)" style="fill: #4c72b0; stroke: #ffffff; stroke-linejoin: miter"/>
   </g>
   <g id="patch_107">
    <path d="M 616.879542 273.429934 
L 620.169835 273.429934 
L 620.169835 273.307722 
L 616.879542 273.307722 
z
" clip-path="url(#p7a33b679fc)" style="fill: #4c72b0; stroke: #ffffff; stroke-linejoin: miter"/>
   </g>
   <g id="patch_108">
    <path d="M 620.169835 273.429934 
L 623.460127 273.429934 
L 623.460127 273.307722 
L 620.169835 273.307722 
z
" clip-path="url(#p7a33b679fc)" style="fill: #4c72b0; stroke: #ffffff; stroke-linejoin: miter"/>
   </g>
   <g id="line2d_9">
    <path d="M 438.48 273.429934 
L 558.760933 273.341093 
L 561.433848 273.089198 
L 562.7703 272.793737 
L 564.106756 272.27927 
L 565.443209 271.41395 
L 566.111435 270.793149 
L 566.779662 270.008501 
L 567.447891 269.025529 
L 568.116117 267.805078 
L 568.78435 266.303336 
L 569.452576 264.472213 
L 570.120802 262.259798 
L 570.789032 259.611291 
L 571.457258 256.470258 
L 572.793711 248.486385 
L 574.130163 237.892894 
L 575.466619 224.385839 
L 576.803078 207.864542 
L 578.139533 188.522745 
L 580.144212 155.549844 
L 583.485347 99.71185 
L 584.821806 81.551646 
L 585.490035 74.163325 
L 586.158261 68.130045 
L 586.826488 63.589865 
L 587.494714 60.648501 
L 588.16294 59.375321 
L 588.831167 59.800552 
L 589.499393 61.914062 
L 590.167619 65.665851 
L 590.835846 70.967917 
L 591.504084 77.697921 
L 592.840537 94.807627 
L 594.176989 115.526437 
L 599.522812 203.278394 
L 600.859265 220.536201 
L 602.195718 234.797364 
L 603.53217 246.097077 
L 604.868623 254.6973 
L 606.205088 260.993576 
L 607.54154 265.432121 
L 608.209767 267.092277 
L 608.877993 268.447614 
L 609.546219 269.544136 
L 610.882672 271.122051 
L 612.219125 272.102143 
L 613.555589 272.689945 
L 614.892042 273.030444 
L 616.896721 273.280648 
L 620.237853 273.405248 
L 631.597725 273.429921 
L 638.28 273.429934 
L 638.28 273.429934 
" clip-path="url(#p7a33b679fc)" style="fill: none; stroke: #c44e52; stroke-width: 2; stroke-linecap: round"/>
   </g>
   <g id="line2d_10">
    <path d="M 438.48 273.408386 
L 452.512777 273.255786 
L 459.863279 272.971194 
L 465.209102 272.551185 
L 469.21846 272.041485 
L 473.22783 271.291955 
L 476.568961 270.426064 
L 479.241867 269.537449 
L 481.914784 268.443397 
L 484.58769 267.114603 
L 487.260607 265.522799 
L 489.933512 263.64253 
L 492.606421 261.453114 
L 495.279332 258.940841 
L 497.95224 256.101217 
L 500.625149 252.941104 
L 503.29806 249.480593 
L 506.639195 244.786915 
L 510.648562 238.753909 
L 520.003746 224.430123 
L 522.676654 220.718319 
L 525.349565 217.371138 
L 527.354247 215.161622 
L 529.358926 213.253987 
L 531.363608 211.683 
L 533.368296 210.477903 
L 534.704749 209.889316 
L 536.041202 209.478609 
L 537.377657 209.249295 
L 538.71411 209.203331 
L 540.050569 209.341121 
L 541.387025 209.66147 
L 542.723477 210.161652 
L 544.05993 210.837397 
L 546.064612 212.167324 
L 548.069297 213.854066 
L 550.073979 215.866441 
L 552.078661 218.168042 
L 554.751572 221.616223 
L 558.092707 226.389303 
L 562.7703 233.55913 
L 569.452576 243.806795 
L 572.793711 248.572259 
L 576.134851 252.941104 
L 578.80776 256.101217 
L 581.480665 258.940837 
L 584.153579 261.453114 
L 586.826488 263.64253 
L 589.499393 265.522799 
L 592.17231 267.114603 
L 594.845216 268.443397 
L 597.518121 269.537443 
L 600.191039 270.426064 
L 603.53217 271.291955 
L 606.873314 271.935238 
L 610.882672 272.47987 
L 615.560268 272.887925 
L 621.574317 273.179765 
L 630.261272 273.356013 
L 638.28 273.408386 
L 638.28 273.408386 
" clip-path="url(#p7a33b679fc)" style="fill: none; stroke: #55a868; stroke-width: 2; stroke-linecap: round"/>
   </g>
   <g id="patch_109">
    <path d="M 438.48 275.04 
L 638.28 275.04 
" style="fill: none; stroke: #cccccc; stroke-width: 1.25; stroke-linejoin: miter; stroke-linecap: square"/>
   </g>
   <g id="text_6">
    <!-- $N = 50$ -->
    <g style="fill: #1a1a1a" transform="translate(509.13 25.92) scale(0.18 -0.18)">
     <defs>
      <path id="DejaVuSans-35" d="M 691 4666 
L 3169 4666 
L 3169 4134 
L 1269 4134 
L 1269 2991 
Q 1406 3038 1543 3061 
Q 1681 3084 1819 3084 
Q 2600 3084 3056 2656 
Q 3513 2228 3513 1497 
Q 3513 744 3044 326 
Q 2575 -91 1722 -91 
Q 1428 -91 1123 -41 
Q 819 9 494 109 
L 494 744 
Q 775 591 1075 516 
Q 1375 441 1709 441 
Q 2250 441 2565 725 
Q 2881 1009 2881 1497 
Q 2881 1984 2565 2268 
Q 2250 2553 1709 2553 
Q 1456 2553 1204 2497 
Q 953 2441 691 2322 
L 691 4666 
z
" transform="scale(0.015625)"/>
     </defs>
     <use xlink:href="#DejaVuSans-Oblique-4e" transform="translate(0 0.78125)"/>
     <use xlink:href="#DejaVuSans-3d" transform="translate(94.287109 0.78125)"/>
     <use xlink:href="#DejaVuSans-35" transform="translate(197.558594 0.78125)"/>
     <use xlink:href="#DejaVuSans-30" transform="translate(261.181641 0.78125)"/>
    </g>
   </g>
  </g>
  <g id="axes_4">
   <g id="patch_110">
    <path d="M 651.24 275.04 
L 851.04 275.04 
L 851.04 31.92 
L 651.24 31.92 
z
" style="fill: #ffffff"/>
   </g>
   <g id="matplotlib.axis_7">
    <g id="xtick_16"/>
    <g id="xtick_17"/>
    <g id="xtick_18"/>
    <g id="xtick_19"/>
    <g id="xtick_20"/>
   </g>
   <g id="matplotlib.axis_8">
    <g id="ytick_25"/>
    <g id="ytick_26"/>
    <g id="ytick_27"/>
    <g id="ytick_28"/>
    <g id="ytick_29"/>
    <g id="ytick_30"/>
    <g id="ytick_31"/>
    <g id="ytick_32"/>
   </g>
   <g id="patch_111">
    <path d="M 694.752836 273.429934 
L 697.507806 273.429934 
L 697.507806 273.283974 
L 694.752836 273.283974 
z
" clip-path="url(#p66af0cb34d)" style="fill: #4c72b0; stroke: #ffffff; stroke-linejoin: miter"/>
   </g>
   <g id="patch_112">
    <path d="M 697.507806 273.429934 
L 700.262777 273.429934 
L 700.262777 273.429934 
L 697.507806 273.429934 
z
" clip-path="url(#p66af0cb34d)" style="fill: #4c72b0; stroke: #ffffff; stroke-linejoin: miter"/>
   </g>
   <g id="patch_113">
    <path d="M 700.262777 273.429934 
L 703.01775 273.429934 
L 703.01775 273.429934 
L 700.262777 273.429934 
z
" clip-path="url(#p66af0cb34d)" style="fill: #4c72b0; stroke: #ffffff; stroke-linejoin: miter"/>
   </g>
   <g id="patch_114">
    <path d="M 703.01775 273.429934 
L 705.77272 273.429934 
L 705.77272 273.429934 
L 703.01775 273.429934 
z
" clip-path="url(#p66af0cb34d)" style="fill: #4c72b0; stroke: #ffffff; stroke-linejoin: miter"/>
   </g>
   <g id="patch_115">
    <path d="M 705.77272 273.429934 
L 708.527691 273.429934 
L 708.527691 273.283974 
L 705.77272 273.283974 
z
" clip-path="url(#p66af0cb34d)" style="fill: #4c72b0; stroke: #ffffff; stroke-linejoin: miter"/>
   </g>
   <g id="patch_116">
    <path d="M 708.527691 273.429934 
L 711.282664 273.429934 
L 711.282664 273.429934 
L 708.527691 273.429934 
z
" clip-path="url(#p66af0cb34d)" style="fill: #4c72b0; stroke: #ffffff; stroke-linejoin: miter"/>
   </g>
   <g id="patch_117">
    <path d="M 711.282664 273.429934 
L 714.037634 273.429934 
L 714.037634 273.429934 
L 711.282664 273.429934 
z
" clip-path="url(#p66af0cb34d)" style="fill: #4c72b0; stroke: #ffffff; stroke-linejoin: miter"/>
   </g>
   <g id="patch_118">
    <path d="M 714.037634 273.429934 
L 716.792605 273.429934 
L 716.792605 273.429934 
L 714.037634 273.429934 
z
" clip-path="url(#p66af0cb34d)" style="fill: #4c72b0; stroke: #ffffff; stroke-linejoin: miter"/>
   </g>
   <g id="patch_119">
    <path d="M 716.792605 273.429934 
L 719.547578 273.429934 
L 719.547578 273.283974 
L 716.792605 273.283974 
z
" clip-path="url(#p66af0cb34d)" style="fill: #4c72b0; stroke: #ffffff; stroke-linejoin: miter"/>
   </g>
   <g id="patch_120">
    <path d="M 719.547578 273.429934 
L 722.302548 273.429934 
L 722.302548 273.429934 
L 719.547578 273.429934 
z
" clip-path="url(#p66af0cb34d)" style="fill: #4c72b0; stroke: #ffffff; stroke-linejoin: miter"/>
   </g>
   <g id="patch_121">
    <path d="M 722.302548 273.429934 
L 725.057519 273.429934 
L 725.057519 273.429934 
L 722.302548 273.429934 
z
" clip-path="url(#p66af0cb34d)" style="fill: #4c72b0; stroke: #ffffff; stroke-linejoin: miter"/>
   </g>
   <g id="patch_122">
    <path d="M 725.057519 273.429934 
L 727.812491 273.429934 
L 727.812491 273.429934 
L 725.057519 273.429934 
z
" clip-path="url(#p66af0cb34d)" style="fill: #4c72b0; stroke: #ffffff; stroke-linejoin: miter"/>
   </g>
   <g id="patch_123">
    <path d="M 727.812491 273.429934 
L 730.567461 273.429934 
L 730.567461 273.283974 
L 727.812491 273.283974 
z
" clip-path="url(#p66af0cb34d)" style="fill: #4c72b0; stroke: #ffffff; stroke-linejoin: miter"/>
   </g>
   <g id="patch_124">
    <path d="M 730.567461 273.429934 
L 733.322433 273.429934 
L 733.322433 273.283974 
L 730.567461 273.283974 
z
" clip-path="url(#p66af0cb34d)" style="fill: #4c72b0; stroke: #ffffff; stroke-linejoin: miter"/>
   </g>
   <g id="patch_125">
    <path d="M 733.322433 273.429934 
L 736.077403 273.429934 
L 736.077403 273.429934 
L 733.322433 273.429934 
z
" clip-path="url(#p66af0cb34d)" style="fill: #4c72b0; stroke: #ffffff; stroke-linejoin: miter"/>
   </g>
   <g id="patch_126">
    <path d="M 736.077403 273.429934 
L 738.832375 273.429934 
L 738.832375 273.429934 
L 736.077403 273.429934 
z
" clip-path="url(#p66af0cb34d)" style="fill: #4c72b0; stroke: #ffffff; stroke-linejoin: miter"/>
   </g>
   <g id="patch_127">
    <path d="M 738.832375 273.429934 
L 741.587346 273.429934 
L 741.587346 273.429934 
L 738.832375 273.429934 
z
" clip-path="url(#p66af0cb34d)" style="fill: #4c72b0; stroke: #ffffff; stroke-linejoin: miter"/>
   </g>
   <g id="patch_128">
    <path d="M 741.587346 273.429934 
L 744.342317 273.429934 
L 744.342317 273.429934 
L 741.587346 273.429934 
z
" clip-path="url(#p66af0cb34d)" style="fill: #4c72b0; stroke: #ffffff; stroke-linejoin: miter"/>
   </g>
   <g id="patch_129">
    <path d="M 744.342317 273.429934 
L 747.097289 273.429934 
L 747.097289 273.138015 
L 744.342317 273.138015 
z
" clip-path="url(#p66af0cb34d)" style="fill: #4c72b0; stroke: #ffffff; stroke-linejoin: miter"/>
   </g>
   <g id="patch_130">
    <path d="M 747.097289 273.429934 
L 749.85226 273.429934 
L 749.85226 273.429934 
L 747.097289 273.429934 
z
" clip-path="url(#p66af0cb34d)" style="fill: #4c72b0; stroke: #ffffff; stroke-linejoin: miter"/>
   </g>
   <g id="patch_131">
    <path d="M 749.85226 273.429934 
L 752.607231 273.429934 
L 752.607231 273.283974 
L 749.85226 273.283974 
z
" clip-path="url(#p66af0cb34d)" style="fill: #4c72b0; stroke: #ffffff; stroke-linejoin: miter"/>
   </g>
   <g id="patch_132">
    <path d="M 752.607231 273.429934 
L 755.362202 273.429934 
L 755.362202 273.283974 
L 752.607231 273.283974 
z
" clip-path="url(#p66af0cb34d)" style="fill: #4c72b0; stroke: #ffffff; stroke-linejoin: miter"/>
   </g>
   <g id="patch_133">
    <path d="M 755.362202 273.429934 
L 758.117174 273.429934 
L 758.117174 273.429934 
L 755.362202 273.429934 
z
" clip-path="url(#p66af0cb34d)" style="fill: #4c72b0; stroke: #ffffff; stroke-linejoin: miter"/>
   </g>
   <g id="patch_134">
    <path d="M 758.117174 273.429934 
L 760.872145 273.429934 
L 760.872145 273.138015 
L 758.117174 273.138015 
z
" clip-path="url(#p66af0cb34d)" style="fill: #4c72b0; stroke: #ffffff; stroke-linejoin: miter"/>
   </g>
   <g id="patch_135">
    <path d="M 760.872145 273.429934 
L 763.627116 273.429934 
L 763.627116 273.429934 
L 760.872145 273.429934 
z
" clip-path="url(#p66af0cb34d)" style="fill: #4c72b0; stroke: #ffffff; stroke-linejoin: miter"/>
   </g>
   <g id="patch_136">
    <path d="M 763.627116 273.429934 
L 766.382088 273.429934 
L 766.382088 273.283974 
L 763.627116 273.283974 
z
" clip-path="url(#p66af0cb34d)" style="fill: #4c72b0; stroke: #ffffff; stroke-linejoin: miter"/>
   </g>
   <g id="patch_137">
    <path d="M 766.382088 273.429934 
L 769.137058 273.429934 
L 769.137058 273.429934 
L 766.382088 273.429934 
z
" clip-path="url(#p66af0cb34d)" style="fill: #4c72b0; stroke: #ffffff; stroke-linejoin: miter"/>
   </g>
   <g id="patch_138">
    <path d="M 769.137058 273.429934 
L 771.89203 273.429934 
L 771.89203 273.138015 
L 769.137058 273.138015 
z
" clip-path="url(#p66af0cb34d)" style="fill: #4c72b0; stroke: #ffffff; stroke-linejoin: miter"/>
   </g>
   <g id="patch_139">
    <path d="M 771.89203 273.429934 
L 774.647 273.429934 
L 774.647 273.138015 
L 771.89203 273.138015 
z
" clip-path="url(#p66af0cb34d)" style="fill: #4c72b0; stroke: #ffffff; stroke-linejoin: miter"/>
   </g>
   <g id="patch_140">
    <path d="M 774.647 273.429934 
L 777.401971 273.429934 
L 777.401971 272.262258 
L 774.647 272.262258 
z
" clip-path="url(#p66af0cb34d)" style="fill: #4c72b0; stroke: #ffffff; stroke-linejoin: miter"/>
   </g>
   <g id="patch_141">
    <path d="M 777.401971 273.429934 
L 780.156944 273.429934 
L 780.156944 270.802666 
L 777.401971 270.802666 
z
" clip-path="url(#p66af0cb34d)" style="fill: #4c72b0; stroke: #ffffff; stroke-linejoin: miter"/>
   </g>
   <g id="patch_142">
    <path d="M 780.156944 273.429934 
L 782.911914 273.429934 
L 782.911914 266.423879 
L 780.156944 266.423879 
z
" clip-path="url(#p66af0cb34d)" style="fill: #4c72b0; stroke: #ffffff; stroke-linejoin: miter"/>
   </g>
   <g id="patch_143">
    <path d="M 782.911914 273.429934 
L 785.666885 273.429934 
L 785.666885 256.644594 
L 782.911914 256.644594 
z
" clip-path="url(#p66af0cb34d)" style="fill: #4c72b0; stroke: #ffffff; stroke-linejoin: miter"/>
   </g>
   <g id="patch_144">
    <path d="M 785.666885 273.429934 
L 788.421858 273.429934 
L 788.421858 239.129493 
L 785.666885 239.129493 
z
" clip-path="url(#p66af0cb34d)" style="fill: #4c72b0; stroke: #ffffff; stroke-linejoin: miter"/>
   </g>
   <g id="patch_145">
    <path d="M 788.421858 273.429934 
L 791.176829 273.429934 
L 791.176829 206.288573 
L 788.421858 206.288573 
z
" clip-path="url(#p66af0cb34d)" style="fill: #4c72b0; stroke: #ffffff; stroke-linejoin: miter"/>
   </g>
   <g id="patch_146">
    <path d="M 791.176829 273.429934 
L 793.931799 273.429934 
L 793.931799 156.516391 
L 791.176829 156.516391 
z
" clip-path="url(#p66af0cb34d)" style="fill: #4c72b0; stroke: #ffffff; stroke-linejoin: miter"/>
   </g>
   <g id="patch_147">
    <path d="M 793.931799 273.429934 
L 796.686769 273.429934 
L 796.686769 111.268953 
L 793.931799 111.268953 
z
" clip-path="url(#p66af0cb34d)" style="fill: #4c72b0; stroke: #ffffff; stroke-linejoin: miter"/>
   </g>
   <g id="patch_148">
    <path d="M 796.686769 273.429934 
L 799.441743 273.429934 
L 799.441743 74.19546 
L 796.686769 74.19546 
z
" clip-path="url(#p66af0cb34d)" style="fill: #4c72b0; stroke: #ffffff; stroke-linejoin: miter"/>
   </g>
   <g id="patch_149">
    <path d="M 799.441743 273.429934 
L 802.19671 273.429934 
L 802.19671 62.810178 
L 799.441743 62.810178 
z
" clip-path="url(#p66af0cb34d)" style="fill: #4c72b0; stroke: #ffffff; stroke-linejoin: miter"/>
   </g>
   <g id="patch_150">
    <path d="M 802.19671 273.429934 
L 804.951686 273.429934 
L 804.951686 77.552737 
L 802.19671 77.552737 
z
" clip-path="url(#p66af0cb34d)" style="fill: #4c72b0; stroke: #ffffff; stroke-linejoin: miter"/>
   </g>
   <g id="patch_151">
    <path d="M 804.951686 273.429934 
L 807.706657 273.429934 
L 807.706657 108.203804 
L 804.951686 108.203804 
z
" clip-path="url(#p66af0cb34d)" style="fill: #4c72b0; stroke: #ffffff; stroke-linejoin: miter"/>
   </g>
   <g id="patch_152">
    <path d="M 807.706657 273.429934 
L 810.461627 273.429934 
L 810.461627 155.056796 
L 807.706657 155.056796 
z
" clip-path="url(#p66af0cb34d)" style="fill: #4c72b0; stroke: #ffffff; stroke-linejoin: miter"/>
   </g>
   <g id="patch_153">
    <path d="M 810.461627 273.429934 
L 813.216598 273.429934 
L 813.216598 192.276464 
L 810.461627 192.276464 
z
" clip-path="url(#p66af0cb34d)" style="fill: #4c72b0; stroke: #ffffff; stroke-linejoin: miter"/>
   </g>
   <g id="patch_154">
    <path d="M 813.216598 273.429934 
L 815.971568 273.429934 
L 815.971568 232.999158 
L 813.216598 232.999158 
z
" clip-path="url(#p66af0cb34d)" style="fill: #4c72b0; stroke: #ffffff; stroke-linejoin: miter"/>
   </g>
   <g id="patch_155">
    <path d="M 815.971568 273.429934 
L 818.726538 273.429934 
L 818.726538 250.660255 
L 815.971568 250.660255 
z
" clip-path="url(#p66af0cb34d)" style="fill: #4c72b0; stroke: #ffffff; stroke-linejoin: miter"/>
   </g>
   <g id="patch_156">
    <path d="M 818.726538 273.429934 
L 821.481509 273.429934 
L 821.481509 263.796608 
L 818.726538 263.796608 
z
" clip-path="url(#p66af0cb34d)" style="fill: #4c72b0; stroke: #ffffff; stroke-linejoin: miter"/>
   </g>
   <g id="patch_157">
    <path d="M 821.481509 273.429934 
L 824.236485 273.429934 
L 824.236485 269.343077 
L 821.481509 269.343077 
z
" clip-path="url(#p66af0cb34d)" style="fill: #4c72b0; stroke: #ffffff; stroke-linejoin: miter"/>
   </g>
   <g id="patch_158">
    <path d="M 824.236485 273.429934 
L 826.991455 273.429934 
L 826.991455 272.116298 
L 824.236485 272.116298 
z
" clip-path="url(#p66af0cb34d)" style="fill: #4c72b0; stroke: #ffffff; stroke-linejoin: miter"/>
   </g>
   <g id="patch_159">
    <path d="M 826.991455 273.429934 
L 829.746426 273.429934 
L 829.746426 273.138015 
L 826.991455 273.138015 
z
" clip-path="url(#p66af0cb34d)" style="fill: #4c72b0; stroke: #ffffff; stroke-linejoin: miter"/>
   </g>
   <g id="patch_160">
    <path d="M 829.746426 273.429934 
L 832.501396 273.429934 
L 832.501396 273.283974 
L 829.746426 273.283974 
z
" clip-path="url(#p66af0cb34d)" style="fill: #4c72b0; stroke: #ffffff; stroke-linejoin: miter"/>
   </g>
   <g id="line2d_11">
    <path d="M 651.24 273.429934 
L 771.520933 273.341093 
L 774.193848 273.089198 
L 775.5303 272.793737 
L 776.866756 272.27927 
L 778.203209 271.41395 
L 778.871435 270.793149 
L 779.539662 270.008501 
L 780.207891 269.025529 
L 780.876117 267.805078 
L 781.54435 266.303336 
L 782.212576 264.472213 
L 782.880802 262.259798 
L 783.549032 259.611291 
L 784.217258 256.470258 
L 785.553711 248.486385 
L 786.890163 237.892894 
L 788.226619 224.385839 
L 789.563078 207.864542 
L 790.899533 188.522745 
L 792.904212 155.549844 
L 796.245347 99.71185 
L 797.581806 81.551646 
L 798.250035 74.163325 
L 798.918261 68.130045 
L 799.586488 63.589865 
L 800.254714 60.648501 
L 800.92294 59.375321 
L 801.591167 59.800552 
L 802.259393 61.914062 
L 802.927619 65.665851 
L 803.595846 70.967917 
L 804.264084 77.697921 
L 805.600537 94.807627 
L 806.936989 115.526437 
L 812.282812 203.278394 
L 813.619265 220.536201 
L 814.955718 234.797364 
L 816.29217 246.097077 
L 817.628623 254.6973 
L 818.965088 260.993576 
L 820.30154 265.432121 
L 820.969767 267.092277 
L 821.637993 268.447614 
L 822.306219 269.544136 
L 823.642672 271.122051 
L 824.979125 272.102143 
L 826.315589 272.689945 
L 827.652042 273.030444 
L 829.656721 273.280648 
L 832.997853 273.405248 
L 844.357725 273.429921 
L 851.04 273.429934 
L 851.04 273.429934 
" clip-path="url(#p66af0cb34d)" style="fill: none; stroke: #c44e52; stroke-width: 2; stroke-linecap: round"/>
   </g>
   <g id="line2d_12">
    <path d="M 651.24 273.408386 
L 665.272777 273.255786 
L 672.623279 272.971194 
L 677.969102 272.551185 
L 681.97846 272.041485 
L 685.98783 271.291955 
L 689.328961 270.426064 
L 692.001867 269.537449 
L 694.674784 268.443397 
L 697.34769 267.114603 
L 700.020607 265.522799 
L 702.693512 263.64253 
L 705.366421 261.453114 
L 708.039332 258.940841 
L 710.71224 256.101217 
L 713.385149 252.941104 
L 716.05806 249.480593 
L 719.399195 244.786915 
L 723.408562 238.753909 
L 732.763746 224.430123 
L 735.436654 220.718319 
L 738.109565 217.371138 
L 740.114247 215.161622 
L 742.118926 213.253987 
L 744.123608 211.683 
L 746.128296 210.477903 
L 747.464749 209.889316 
L 748.801202 209.478609 
L 750.137657 209.249295 
L 751.47411 209.203331 
L 752.810569 209.341121 
L 754.147025 209.66147 
L 755.483477 210.161652 
L 756.81993 210.837397 
L 758.824612 212.167324 
L 760.829297 213.854066 
L 762.833979 215.866441 
L 764.838661 218.168042 
L 767.511572 221.616223 
L 770.852707 226.389303 
L 775.5303 233.55913 
L 782.212576 243.806795 
L 785.553711 248.572259 
L 788.894851 252.941104 
L 791.56776 256.101217 
L 794.240665 258.940837 
L 796.913579 261.453114 
L 799.586488 263.64253 
L 802.259393 265.522799 
L 804.93231 267.114603 
L 807.605216 268.443397 
L 810.278121 269.537443 
L 812.951039 270.426064 
L 816.29217 271.291955 
L 819.633314 271.935238 
L 823.642672 272.47987 
L 828.320268 272.887925 
L 834.334317 273.179765 
L 843.021272 273.356013 
L 851.04 273.408386 
L 851.04 273.408386 
" clip-path="url(#p66af0cb34d)" style="fill: none; stroke: #55a868; stroke-width: 2; stroke-linecap: round"/>
   </g>
   <g id="patch_161">
    <path d="M 651.24 275.04 
L 851.04 275.04 
" style="fill: none; stroke: #cccccc; stroke-width: 1.25; stroke-linejoin: miter; stroke-linecap: square"/>
   </g>
   <g id="text_7">
    <!-- $N = 200$ -->
    <g style="fill: #1a1a1a" transform="translate(716.13 25.92) scale(0.18 -0.18)">
     <defs>
      <path id="DejaVuSans-32" d="M 1228 531 
L 3431 531 
L 3431 0 
L 469 0 
L 469 531 
Q 828 903 1448 1529 
Q 2069 2156 2228 2338 
Q 2531 2678 2651 2914 
Q 2772 3150 2772 3378 
Q 2772 3750 2511 3984 
Q 2250 4219 1831 4219 
Q 1534 4219 1204 4116 
Q 875 4013 500 3803 
L 500 4441 
Q 881 4594 1212 4672 
Q 1544 4750 1819 4750 
Q 2544 4750 2975 4387 
Q 3406 4025 3406 3419 
Q 3406 3131 3298 2873 
Q 3191 2616 2906 2266 
Q 2828 2175 2409 1742 
Q 1991 1309 1228 531 
z
" transform="scale(0.015625)"/>
     </defs>
     <use xlink:href="#DejaVuSans-Oblique-4e" transform="translate(0 0.78125)"/>
     <use xlink:href="#DejaVuSans-3d" transform="translate(94.287109 0.78125)"/>
     <use xlink:href="#DejaVuSans-32" transform="translate(197.558594 0.78125)"/>
     <use xlink:href="#DejaVuSans-30" transform="translate(261.181641 0.78125)"/>
     <use xlink:href="#DejaVuSans-30" transform="translate(324.804688 0.78125)"/>
    </g>
   </g>
  </g>
 </g>
 <defs>
  <clipPath id="pb50ecbf733">
   <rect x="12.96" y="31.92" width="199.8" height="243.12"/>
  </clipPath>
  <clipPath id="p209fcd75d0">
   <rect x="225.72" y="31.92" width="199.8" height="243.12"/>
  </clipPath>
  <clipPath id="p7a33b679fc">
   <rect x="438.48" y="31.92" width="199.8" height="243.12"/>
  </clipPath>
  <clipPath id="p66af0cb34d">
   <rect x="651.24" y="31.92" width="199.8" height="243.12"/>
  </clipPath>
 </defs>
</svg>
